<?xml version="1.0" encoding="utf-8" standalone="no"?>
<!DOCTYPE svg PUBLIC "-//W3C//DTD SVG 1.1//EN"
  "http://www.w3.org/Graphics/SVG/1.1/DTD/svg11.dtd">
<svg xmlns:xlink="http://www.w3.org/1999/xlink" width="925.944736pt" height="356.078437pt" viewBox="0 0 925.944736 356.078437" xmlns="http://www.w3.org/2000/svg" version="1.1">
 <metadata>
  <rdf:RDF xmlns:dc="http://purl.org/dc/elements/1.1/" xmlns:cc="http://creativecommons.org/ns#" xmlns:rdf="http://www.w3.org/1999/02/22-rdf-syntax-ns#">
   <cc:Work>
    <dc:type rdf:resource="http://purl.org/dc/dcmitype/StillImage"/>
    <dc:date>2026-06-25T15:05:22.970085</dc:date>
    <dc:format>image/svg+xml</dc:format>
    <dc:creator>
     <cc:Agent>
      <dc:title>Matplotlib v3.11.0, https://matplotlib.org/</dc:title>
     </cc:Agent>
    </dc:creator>
   </cc:Work>
  </rdf:RDF>
 </metadata>
 <defs>
  <style type="text/css">*{stroke-linejoin: round; stroke-linecap: butt}</style>
 </defs>
 <g id="figure_1">
  <g id="patch_1">
   <path d="M 0 356.078437 
L 925.944736 356.078437 
L 925.944736 0 
L 0 0 
z
" style="fill: #ffffff"/>
  </g>
  <g id="axes_1">
   <g id="patch_2">
    <path d="M 40.925781 317.877656 
L 415.720259 317.877656 
L 415.720259 64.563047 
L 40.925781 64.563047 
z
" style="fill: #ffffff"/>
   </g>
   <g id="patch_3">
    <path d="M 57.961894 317.877656 
L 104.872929 317.877656 
L 104.872929 85.837615 
L 57.961894 85.837615 
z
" clip-path="url(#pbcd0bd0ec4)" style="fill: #4c72b0"/>
   </g>
   <g id="patch_4">
    <path d="M 181.411985 317.877656 
L 228.32302 317.877656 
L 228.32302 103.028453 
L 181.411985 103.028453 
z
" clip-path="url(#pbcd0bd0ec4)" style="fill: #4c72b0"/>
   </g>
   <g id="patch_5">
    <path d="M 304.862077 317.877656 
L 351.773111 317.877656 
L 351.773111 76.625647 
L 304.862077 76.625647 
z
" clip-path="url(#pbcd0bd0ec4)" style="fill: #4c72b0"/>
   </g>
   <g id="patch_6">
    <path d="M 104.872929 317.877656 
L 151.783963 317.877656 
L 151.783963 299.018509 
L 104.872929 299.018509 
z
" clip-path="url(#pbcd0bd0ec4)" style="fill: #c44e52"/>
   </g>
   <g id="patch_7">
    <path d="M 228.32302 317.877656 
L 275.234055 317.877656 
L 275.234055 299.598791 
L 228.32302 299.598791 
z
" clip-path="url(#pbcd0bd0ec4)" style="fill: #c44e52"/>
   </g>
   <g id="patch_8">
    <path d="M 351.773111 317.877656 
L 398.684146 317.877656 
L 398.684146 299.598791 
L 351.773111 299.598791 
z
" clip-path="url(#pbcd0bd0ec4)" style="fill: #c44e52"/>
   </g>
   <g id="matplotlib.axis_1">
    <g id="xtick_1">
     <g id="line2d_1">
      <defs>
       <path id="ma8ab43377e" d="M 0 0 
L 0 3.5 
" style="stroke: #000000; stroke-width: 0.8"/>
      </defs>
      <g>
       <use xlink:href="#ma8ab43377e" x="104.872929" y="317.877656" style="stroke: #000000; stroke-width: 0.8"/>
      </g>
     </g>
     <g id="text_1">
      <!-- TCGA -->
      <g transform="translate(91.326054 332.475312) scale(0.1 -0.1)">
       <defs>
        <path id="DejaVuSans-37" d="M -19 4666 
L 3928 4666 
L 3928 4134 
L 2272 4134 
L 2272 0 
L 1638 0 
L 1638 4134 
L -19 4134 
L -19 4666 
z
" transform="scale(0.015625)"/>
        <path id="DejaVuSans-26" d="M 4122 4306 
L 4122 3641 
Q 3803 3938 3442 4084 
Q 3081 4231 2675 4231 
Q 1875 4231 1450 3742 
Q 1025 3253 1025 2328 
Q 1025 1406 1450 917 
Q 1875 428 2675 428 
Q 3081 428 3442 575 
Q 3803 722 4122 1019 
L 4122 359 
Q 3791 134 3420 21 
Q 3050 -91 2638 -91 
Q 1578 -91 968 557 
Q 359 1206 359 2328 
Q 359 3453 968 4101 
Q 1578 4750 2638 4750 
Q 3056 4750 3426 4639 
Q 3797 4528 4122 4306 
z
" transform="scale(0.015625)"/>
        <path id="DejaVuSans-2a" d="M 3809 666 
L 3809 1919 
L 2778 1919 
L 2778 2438 
L 4434 2438 
L 4434 434 
Q 4069 175 3628 42 
Q 3188 -91 2688 -91 
Q 1594 -91 976 548 
Q 359 1188 359 2328 
Q 359 3472 976 4111 
Q 1594 4750 2688 4750 
Q 3144 4750 3555 4637 
Q 3966 4525 4313 4306 
L 4313 3634 
Q 3963 3931 3569 4081 
Q 3175 4231 2741 4231 
Q 1884 4231 1454 3753 
Q 1025 3275 1025 2328 
Q 1025 1384 1454 906 
Q 1884 428 2741 428 
Q 3075 428 3337 486 
Q 3600 544 3809 666 
z
" transform="scale(0.015625)"/>
        <path id="DejaVuSans-24" d="M 2188 4044 
L 1331 1722 
L 3047 1722 
L 2188 4044 
z
M 1831 4666 
L 2547 4666 
L 4325 0 
L 3669 0 
L 3244 1197 
L 1141 1197 
L 716 0 
L 50 0 
L 1831 4666 
z
" transform="scale(0.015625)"/>
       </defs>
       <use xlink:href="#DejaVuSans-37"/>
       <use xlink:href="#DejaVuSans-26" transform="translate(55.21875 0)"/>
       <use xlink:href="#DejaVuSans-2a" transform="translate(125.046875 0)"/>
       <use xlink:href="#DejaVuSans-24" transform="translate(202.53125 0)"/>
      </g>
     </g>
    </g>
    <g id="xtick_2">
     <g id="line2d_2">
      <g>
       <use xlink:href="#ma8ab43377e" x="228.32302" y="317.877656" style="stroke: #000000; stroke-width: 0.8"/>
      </g>
     </g>
     <g id="text_2">
      <!-- METABRIC -->
      <g transform="translate(202.892551 332.475312) scale(0.1 -0.1)">
       <defs>
        <path id="DejaVuSans-30" d="M 628 4666 
L 1569 4666 
L 2759 1491 
L 3956 4666 
L 4897 4666 
L 4897 0 
L 4281 0 
L 4281 4097 
L 3078 897 
L 2444 897 
L 1241 4097 
L 1241 0 
L 628 0 
L 628 4666 
z
" transform="scale(0.015625)"/>
        <path id="DejaVuSans-28" d="M 628 4666 
L 3578 4666 
L 3578 4134 
L 1259 4134 
L 1259 2753 
L 3481 2753 
L 3481 2222 
L 1259 2222 
L 1259 531 
L 3634 531 
L 3634 0 
L 628 0 
L 628 4666 
z
" transform="scale(0.015625)"/>
        <path id="DejaVuSans-25" d="M 1259 2228 
L 1259 519 
L 2272 519 
Q 2781 519 3026 730 
Q 3272 941 3272 1375 
Q 3272 1813 3026 2020 
Q 2781 2228 2272 2228 
L 1259 2228 
z
M 1259 4147 
L 1259 2741 
L 2194 2741 
Q 2656 2741 2882 2914 
Q 3109 3088 3109 3444 
Q 3109 3797 2882 3972 
Q 2656 4147 2194 4147 
L 1259 4147 
z
M 628 4666 
L 2241 4666 
Q 2963 4666 3353 4366 
Q 3744 4066 3744 3513 
Q 3744 3084 3544 2831 
Q 3344 2578 2956 2516 
Q 3422 2416 3680 2098 
Q 3938 1781 3938 1306 
Q 3938 681 3513 340 
Q 3088 0 2303 0 
L 628 0 
L 628 4666 
z
" transform="scale(0.015625)"/>
        <path id="DejaVuSans-35" d="M 2841 2188 
Q 3044 2119 3236 1894 
Q 3428 1669 3622 1275 
L 4263 0 
L 3584 0 
L 2988 1197 
Q 2756 1666 2539 1819 
Q 2322 1972 1947 1972 
L 1259 1972 
L 1259 0 
L 628 0 
L 628 4666 
L 2053 4666 
Q 2853 4666 3247 4331 
Q 3641 3997 3641 3322 
Q 3641 2881 3436 2590 
Q 3231 2300 2841 2188 
z
M 1259 4147 
L 1259 2491 
L 2053 2491 
Q 2509 2491 2742 2702 
Q 2975 2913 2975 3322 
Q 2975 3731 2742 3939 
Q 2509 4147 2053 4147 
L 1259 4147 
z
" transform="scale(0.015625)"/>
        <path id="DejaVuSans-2c" d="M 628 4666 
L 1259 4666 
L 1259 0 
L 628 0 
L 628 4666 
z
" transform="scale(0.015625)"/>
       </defs>
       <use xlink:href="#DejaVuSans-30"/>
       <use xlink:href="#DejaVuSans-28" transform="translate(86.28125 0)"/>
       <use xlink:href="#DejaVuSans-37" transform="translate(149.46875 0)"/>
       <use xlink:href="#DejaVuSans-24" transform="translate(202.78125 0)"/>
       <use xlink:href="#DejaVuSans-25" transform="translate(271.1875 0)"/>
       <use xlink:href="#DejaVuSans-35" transform="translate(339.796875 0)"/>
       <use xlink:href="#DejaVuSans-2c" transform="translate(409.28125 0)"/>
       <use xlink:href="#DejaVuSans-26" transform="translate(438.78125 0)"/>
      </g>
     </g>
    </g>
    <g id="xtick_3">
     <g id="line2d_3">
      <g>
       <use xlink:href="#ma8ab43377e" x="351.773111" y="317.877656" style="stroke: #000000; stroke-width: 0.8"/>
      </g>
     </g>
     <g id="text_3">
      <!-- ISPY2 -->
      <g transform="translate(337.984049 332.475312) scale(0.1 -0.1)">
       <defs>
        <path id="DejaVuSans-36" d="M 3425 4513 
L 3425 3897 
Q 3066 4069 2747 4153 
Q 2428 4238 2131 4238 
Q 1616 4238 1336 4038 
Q 1056 3838 1056 3469 
Q 1056 3159 1242 3001 
Q 1428 2844 1947 2747 
L 2328 2669 
Q 3034 2534 3370 2195 
Q 3706 1856 3706 1288 
Q 3706 609 3251 259 
Q 2797 -91 1919 -91 
Q 1588 -91 1214 -16 
Q 841 59 441 206 
L 441 856 
Q 825 641 1194 531 
Q 1563 422 1919 422 
Q 2459 422 2753 634 
Q 3047 847 3047 1241 
Q 3047 1584 2836 1778 
Q 2625 1972 2144 2069 
L 1759 2144 
Q 1053 2284 737 2584 
Q 422 2884 422 3419 
Q 422 4038 858 4394 
Q 1294 4750 2059 4750 
Q 2388 4750 2728 4690 
Q 3069 4631 3425 4513 
z
" transform="scale(0.015625)"/>
        <path id="DejaVuSans-33" d="M 1259 4147 
L 1259 2394 
L 2053 2394 
Q 2494 2394 2734 2622 
Q 2975 2850 2975 3272 
Q 2975 3691 2734 3919 
Q 2494 4147 2053 4147 
L 1259 4147 
z
M 628 4666 
L 2053 4666 
Q 2838 4666 3239 4311 
Q 3641 3956 3641 3272 
Q 3641 2581 3239 2228 
Q 2838 1875 2053 1875 
L 1259 1875 
L 1259 0 
L 628 0 
L 628 4666 
z
" transform="scale(0.015625)"/>
        <path id="DejaVuSans-3c" d="M -13 4666 
L 666 4666 
L 1959 2747 
L 3244 4666 
L 3922 4666 
L 2272 2222 
L 2272 0 
L 1638 0 
L 1638 2222 
L -13 4666 
z
" transform="scale(0.015625)"/>
        <path id="DejaVuSans-15" d="M 1228 531 
L 3431 531 
L 3431 0 
L 469 0 
L 469 531 
Q 828 903 1448 1529 
Q 2069 2156 2228 2338 
Q 2531 2678 2651 2914 
Q 2772 3150 2772 3378 
Q 2772 3750 2511 3984 
Q 2250 4219 1831 4219 
Q 1534 4219 1204 4116 
Q 875 4013 500 3803 
L 500 4441 
Q 881 4594 1212 4672 
Q 1544 4750 1819 4750 
Q 2544 4750 2975 4387 
Q 3406 4025 3406 3419 
Q 3406 3131 3298 2873 
Q 3191 2616 2906 2266 
Q 2828 2175 2409 1742 
Q 1991 1309 1228 531 
z
" transform="scale(0.015625)"/>
       </defs>
       <use xlink:href="#DejaVuSans-2c"/>
       <use xlink:href="#DejaVuSans-36" transform="translate(29.5 0)"/>
       <use xlink:href="#DejaVuSans-33" transform="translate(92.984375 0)"/>
       <use xlink:href="#DejaVuSans-3c" transform="translate(151.078125 0)"/>
       <use xlink:href="#DejaVuSans-15" transform="translate(212.15625 0)"/>
      </g>
     </g>
    </g>
   </g>
   <g id="matplotlib.axis_2">
    <g id="ytick_1">
     <g id="line2d_4">
      <defs>
       <path id="m8ad4a7c47d" d="M 0 0 
L -3.5 0 
" style="stroke: #000000; stroke-width: 0.8"/>
      </defs>
      <g>
       <use xlink:href="#m8ad4a7c47d" x="40.925781" y="317.877656" style="stroke: #000000; stroke-width: 0.8"/>
      </g>
     </g>
     <g id="text_4">
      <!-- 0 -->
      <g transform="translate(27.563281 321.676484) scale(0.1 -0.1)">
       <defs>
        <path id="DejaVuSans-13" d="M 2034 4250 
Q 1547 4250 1301 3770 
Q 1056 3291 1056 2328 
Q 1056 1369 1301 889 
Q 1547 409 2034 409 
Q 2525 409 2770 889 
Q 3016 1369 3016 2328 
Q 3016 3291 2770 3770 
Q 2525 4250 2034 4250 
z
M 2034 4750 
Q 2819 4750 3233 4129 
Q 3647 3509 3647 2328 
Q 3647 1150 3233 529 
Q 2819 -91 2034 -91 
Q 1250 -91 836 529 
Q 422 1150 422 2328 
Q 422 3509 836 4129 
Q 1250 4750 2034 4750 
z
" transform="scale(0.015625)"/>
       </defs>
       <use xlink:href="#DejaVuSans-13"/>
      </g>
     </g>
    </g>
    <g id="ytick_2">
     <g id="line2d_5">
      <g>
       <use xlink:href="#m8ad4a7c47d" x="40.925781" y="281.610066" style="stroke: #000000; stroke-width: 0.8"/>
      </g>
     </g>
     <g id="text_5">
      <!-- 5 -->
      <g transform="translate(27.563281 285.408894) scale(0.1 -0.1)">
       <defs>
        <path id="DejaVuSans-18" d="M 691 4666 
L 3169 4666 
L 3169 4134 
L 1269 4134 
L 1269 2991 
Q 1406 3038 1543 3061 
Q 1681 3084 1819 3084 
Q 2600 3084 3056 2656 
Q 3513 2228 3513 1497 
Q 3513 744 3044 326 
Q 2575 -91 1722 -91 
Q 1428 -91 1123 -41 
Q 819 9 494 109 
L 494 744 
Q 775 591 1075 516 
Q 1375 441 1709 441 
Q 2250 441 2565 725 
Q 2881 1009 2881 1497 
Q 2881 1984 2565 2268 
Q 2250 2553 1709 2553 
Q 1456 2553 1204 2497 
Q 953 2441 691 2322 
L 691 4666 
z
" transform="scale(0.015625)"/>
       </defs>
       <use xlink:href="#DejaVuSans-18"/>
      </g>
     </g>
    </g>
    <g id="ytick_3">
     <g id="line2d_6">
      <g>
       <use xlink:href="#m8ad4a7c47d" x="40.925781" y="245.342476" style="stroke: #000000; stroke-width: 0.8"/>
      </g>
     </g>
     <g id="text_6">
      <!-- 10 -->
      <g transform="translate(21.200781 249.141304) scale(0.1 -0.1)">
       <defs>
        <path id="DejaVuSans-14" d="M 794 531 
L 1825 531 
L 1825 4091 
L 703 3866 
L 703 4441 
L 1819 4666 
L 2450 4666 
L 2450 531 
L 3481 531 
L 3481 0 
L 794 0 
L 794 531 
z
" transform="scale(0.015625)"/>
       </defs>
       <use xlink:href="#DejaVuSans-14"/>
       <use xlink:href="#DejaVuSans-13" transform="translate(63.625 0)"/>
      </g>
     </g>
    </g>
    <g id="ytick_4">
     <g id="line2d_7">
      <g>
       <use xlink:href="#m8ad4a7c47d" x="40.925781" y="209.074886" style="stroke: #000000; stroke-width: 0.8"/>
      </g>
     </g>
     <g id="text_7">
      <!-- 15 -->
      <g transform="translate(21.200781 212.873714) scale(0.1 -0.1)">
       <use xlink:href="#DejaVuSans-14"/>
       <use xlink:href="#DejaVuSans-18" transform="translate(63.625 0)"/>
      </g>
     </g>
    </g>
    <g id="ytick_5">
     <g id="line2d_8">
      <g>
       <use xlink:href="#m8ad4a7c47d" x="40.925781" y="172.807296" style="stroke: #000000; stroke-width: 0.8"/>
      </g>
     </g>
     <g id="text_8">
      <!-- 20 -->
      <g transform="translate(21.200781 176.606124) scale(0.1 -0.1)">
       <use xlink:href="#DejaVuSans-15"/>
       <use xlink:href="#DejaVuSans-13" transform="translate(63.625 0)"/>
      </g>
     </g>
    </g>
    <g id="ytick_6">
     <g id="line2d_9">
      <g>
       <use xlink:href="#m8ad4a7c47d" x="40.925781" y="136.539706" style="stroke: #000000; stroke-width: 0.8"/>
      </g>
     </g>
     <g id="text_9">
      <!-- 25 -->
      <g transform="translate(21.200781 140.338534) scale(0.1 -0.1)">
       <use xlink:href="#DejaVuSans-15"/>
       <use xlink:href="#DejaVuSans-18" transform="translate(63.625 0)"/>
      </g>
     </g>
    </g>
    <g id="ytick_7">
     <g id="line2d_10">
      <g>
       <use xlink:href="#m8ad4a7c47d" x="40.925781" y="100.272116" style="stroke: #000000; stroke-width: 0.8"/>
      </g>
     </g>
     <g id="text_10">
      <!-- 30 -->
      <g transform="translate(21.200781 104.070944) scale(0.1 -0.1)">
       <defs>
        <path id="DejaVuSans-16" d="M 2597 2516 
Q 3050 2419 3304 2112 
Q 3559 1806 3559 1356 
Q 3559 666 3084 287 
Q 2609 -91 1734 -91 
Q 1441 -91 1130 -33 
Q 819 25 488 141 
L 488 750 
Q 750 597 1062 519 
Q 1375 441 1716 441 
Q 2309 441 2620 675 
Q 2931 909 2931 1356 
Q 2931 1769 2642 2001 
Q 2353 2234 1838 2234 
L 1294 2234 
L 1294 2753 
L 1863 2753 
Q 2328 2753 2575 2939 
Q 2822 3125 2822 3475 
Q 2822 3834 2567 4026 
Q 2313 4219 1838 4219 
Q 1578 4219 1281 4162 
Q 984 4106 628 3988 
L 628 4550 
Q 988 4650 1302 4700 
Q 1616 4750 1894 4750 
Q 2613 4750 3031 4423 
Q 3450 4097 3450 3541 
Q 3450 3153 3228 2886 
Q 3006 2619 2597 2516 
z
" transform="scale(0.015625)"/>
       </defs>
       <use xlink:href="#DejaVuSans-16"/>
       <use xlink:href="#DejaVuSans-13" transform="translate(63.625 0)"/>
      </g>
     </g>
    </g>
    <g id="text_11">
     <!-- mean kernel size (nodes pinned) -->
     <g transform="translate(14.798438 272.983633) rotate(-90) scale(0.1 -0.1)">
      <defs>
       <path id="DejaVuSans-50" d="M 3328 2828 
Q 3544 3216 3844 3400 
Q 4144 3584 4550 3584 
Q 5097 3584 5394 3201 
Q 5691 2819 5691 2113 
L 5691 0 
L 5113 0 
L 5113 2094 
Q 5113 2597 4934 2840 
Q 4756 3084 4391 3084 
Q 3944 3084 3684 2787 
Q 3425 2491 3425 1978 
L 3425 0 
L 2847 0 
L 2847 2094 
Q 2847 2600 2669 2842 
Q 2491 3084 2119 3084 
Q 1678 3084 1418 2786 
Q 1159 2488 1159 1978 
L 1159 0 
L 581 0 
L 581 3500 
L 1159 3500 
L 1159 2956 
Q 1356 3278 1631 3431 
Q 1906 3584 2284 3584 
Q 2666 3584 2933 3390 
Q 3200 3197 3328 2828 
z
" transform="scale(0.015625)"/>
       <path id="DejaVuSans-48" d="M 3597 1894 
L 3597 1613 
L 953 1613 
Q 991 1019 1311 708 
Q 1631 397 2203 397 
Q 2534 397 2845 478 
Q 3156 559 3463 722 
L 3463 178 
Q 3153 47 2828 -22 
Q 2503 -91 2169 -91 
Q 1331 -91 842 396 
Q 353 884 353 1716 
Q 353 2575 817 3079 
Q 1281 3584 2069 3584 
Q 2775 3584 3186 3129 
Q 3597 2675 3597 1894 
z
M 3022 2063 
Q 3016 2534 2758 2815 
Q 2500 3097 2075 3097 
Q 1594 3097 1305 2825 
Q 1016 2553 972 2059 
L 3022 2063 
z
" transform="scale(0.015625)"/>
       <path id="DejaVuSans-44" d="M 2194 1759 
Q 1497 1759 1228 1600 
Q 959 1441 959 1056 
Q 959 750 1161 570 
Q 1363 391 1709 391 
Q 2188 391 2477 730 
Q 2766 1069 2766 1631 
L 2766 1759 
L 2194 1759 
z
M 3341 1997 
L 3341 0 
L 2766 0 
L 2766 531 
Q 2569 213 2275 61 
Q 1981 -91 1556 -91 
Q 1019 -91 701 211 
Q 384 513 384 1019 
Q 384 1609 779 1909 
Q 1175 2209 1959 2209 
L 2766 2209 
L 2766 2266 
Q 2766 2663 2505 2880 
Q 2244 3097 1772 3097 
Q 1472 3097 1187 3025 
Q 903 2953 641 2809 
L 641 3341 
Q 956 3463 1253 3523 
Q 1550 3584 1831 3584 
Q 2591 3584 2966 3190 
Q 3341 2797 3341 1997 
z
" transform="scale(0.015625)"/>
       <path id="DejaVuSans-51" d="M 3513 2113 
L 3513 0 
L 2938 0 
L 2938 2094 
Q 2938 2591 2744 2837 
Q 2550 3084 2163 3084 
Q 1697 3084 1428 2787 
Q 1159 2491 1159 1978 
L 1159 0 
L 581 0 
L 581 3500 
L 1159 3500 
L 1159 2956 
Q 1366 3272 1645 3428 
Q 1925 3584 2291 3584 
Q 2894 3584 3203 3211 
Q 3513 2838 3513 2113 
z
" transform="scale(0.015625)"/>
       <path id="DejaVuSans-3" transform="scale(0.015625)"/>
       <path id="DejaVuSans-4e" d="M 581 4863 
L 1159 4863 
L 1159 1991 
L 2875 3500 
L 3609 3500 
L 1753 1863 
L 3688 0 
L 2938 0 
L 1159 1709 
L 1159 0 
L 581 0 
L 581 4863 
z
" transform="scale(0.015625)"/>
       <path id="DejaVuSans-55" d="M 2631 2963 
Q 2534 3019 2420 3045 
Q 2306 3072 2169 3072 
Q 1681 3072 1420 2755 
Q 1159 2438 1159 1844 
L 1159 0 
L 581 0 
L 581 3500 
L 1159 3500 
L 1159 2956 
Q 1341 3275 1631 3429 
Q 1922 3584 2338 3584 
Q 2397 3584 2469 3576 
Q 2541 3569 2628 3553 
L 2631 2963 
z
" transform="scale(0.015625)"/>
       <path id="DejaVuSans-4f" d="M 603 4863 
L 1178 4863 
L 1178 0 
L 603 0 
L 603 4863 
z
" transform="scale(0.015625)"/>
       <path id="DejaVuSans-56" d="M 2834 3397 
L 2834 2853 
Q 2591 2978 2328 3040 
Q 2066 3103 1784 3103 
Q 1356 3103 1142 2972 
Q 928 2841 928 2578 
Q 928 2378 1081 2264 
Q 1234 2150 1697 2047 
L 1894 2003 
Q 2506 1872 2764 1633 
Q 3022 1394 3022 966 
Q 3022 478 2636 193 
Q 2250 -91 1575 -91 
Q 1294 -91 989 -36 
Q 684 19 347 128 
L 347 722 
Q 666 556 975 473 
Q 1284 391 1588 391 
Q 1994 391 2212 530 
Q 2431 669 2431 922 
Q 2431 1156 2273 1281 
Q 2116 1406 1581 1522 
L 1381 1569 
Q 847 1681 609 1914 
Q 372 2147 372 2553 
Q 372 3047 722 3315 
Q 1072 3584 1716 3584 
Q 2034 3584 2315 3537 
Q 2597 3491 2834 3397 
z
" transform="scale(0.015625)"/>
       <path id="DejaVuSans-4c" d="M 603 3500 
L 1178 3500 
L 1178 0 
L 603 0 
L 603 3500 
z
M 603 4863 
L 1178 4863 
L 1178 4134 
L 603 4134 
L 603 4863 
z
" transform="scale(0.015625)"/>
       <path id="DejaVuSans-5d" d="M 353 3500 
L 3084 3500 
L 3084 2975 
L 922 459 
L 3084 459 
L 3084 0 
L 275 0 
L 275 525 
L 2438 3041 
L 353 3041 
L 353 3500 
z
" transform="scale(0.015625)"/>
       <path id="DejaVuSans-b" d="M 1984 4856 
Q 1566 4138 1362 3434 
Q 1159 2731 1159 2009 
Q 1159 1288 1364 580 
Q 1569 -128 1984 -844 
L 1484 -844 
Q 1016 -109 783 600 
Q 550 1309 550 2009 
Q 550 2706 781 3412 
Q 1013 4119 1484 4856 
L 1984 4856 
z
" transform="scale(0.015625)"/>
       <path id="DejaVuSans-52" d="M 1959 3097 
Q 1497 3097 1228 2736 
Q 959 2375 959 1747 
Q 959 1119 1226 758 
Q 1494 397 1959 397 
Q 2419 397 2687 759 
Q 2956 1122 2956 1747 
Q 2956 2369 2687 2733 
Q 2419 3097 1959 3097 
z
M 1959 3584 
Q 2709 3584 3137 3096 
Q 3566 2609 3566 1747 
Q 3566 888 3137 398 
Q 2709 -91 1959 -91 
Q 1206 -91 779 398 
Q 353 888 353 1747 
Q 353 2609 779 3096 
Q 1206 3584 1959 3584 
z
" transform="scale(0.015625)"/>
       <path id="DejaVuSans-47" d="M 2906 2969 
L 2906 4863 
L 3481 4863 
L 3481 0 
L 2906 0 
L 2906 525 
Q 2725 213 2448 61 
Q 2172 -91 1784 -91 
Q 1150 -91 751 415 
Q 353 922 353 1747 
Q 353 2572 751 3078 
Q 1150 3584 1784 3584 
Q 2172 3584 2448 3432 
Q 2725 3281 2906 2969 
z
M 947 1747 
Q 947 1113 1208 752 
Q 1469 391 1925 391 
Q 2381 391 2643 752 
Q 2906 1113 2906 1747 
Q 2906 2381 2643 2742 
Q 2381 3103 1925 3103 
Q 1469 3103 1208 2742 
Q 947 2381 947 1747 
z
" transform="scale(0.015625)"/>
       <path id="DejaVuSans-53" d="M 1159 525 
L 1159 -1331 
L 581 -1331 
L 581 3500 
L 1159 3500 
L 1159 2969 
Q 1341 3281 1617 3432 
Q 1894 3584 2278 3584 
Q 2916 3584 3314 3078 
Q 3713 2572 3713 1747 
Q 3713 922 3314 415 
Q 2916 -91 2278 -91 
Q 1894 -91 1617 61 
Q 1341 213 1159 525 
z
M 3116 1747 
Q 3116 2381 2855 2742 
Q 2594 3103 2138 3103 
Q 1681 3103 1420 2742 
Q 1159 2381 1159 1747 
Q 1159 1113 1420 752 
Q 1681 391 2138 391 
Q 2594 391 2855 752 
Q 3116 1113 3116 1747 
z
" transform="scale(0.015625)"/>
       <path id="DejaVuSans-c" d="M 513 4856 
L 1013 4856 
Q 1481 4119 1714 3412 
Q 1947 2706 1947 2009 
Q 1947 1309 1714 600 
Q 1481 -109 1013 -844 
L 513 -844 
Q 928 -128 1133 580 
Q 1338 1288 1338 2009 
Q 1338 2731 1133 3434 
Q 928 4138 513 4856 
z
" transform="scale(0.015625)"/>
      </defs>
      <use xlink:href="#DejaVuSans-50"/>
      <use xlink:href="#DejaVuSans-48" transform="translate(97.40625 0)"/>
      <use xlink:href="#DejaVuSans-44" transform="translate(158.9375 0)"/>
      <use xlink:href="#DejaVuSans-51" transform="translate(220.21875 0)"/>
      <use xlink:href="#DejaVuSans-3" transform="translate(283.59375 0)"/>
      <use xlink:href="#DejaVuSans-4e" transform="translate(315.375 0)"/>
      <use xlink:href="#DejaVuSans-48" transform="translate(369.71875 0)"/>
      <use xlink:href="#DejaVuSans-55" transform="translate(431.25 0)"/>
      <use xlink:href="#DejaVuSans-51" transform="translate(470.609375 0)"/>
      <use xlink:href="#DejaVuSans-48" transform="translate(533.984375 0)"/>
      <use xlink:href="#DejaVuSans-4f" transform="translate(595.515625 0)"/>
      <use xlink:href="#DejaVuSans-3" transform="translate(623.296875 0)"/>
      <use xlink:href="#DejaVuSans-56" transform="translate(655.078125 0)"/>
      <use xlink:href="#DejaVuSans-4c" transform="translate(707.171875 0)"/>
      <use xlink:href="#DejaVuSans-5d" transform="translate(734.953125 0)"/>
      <use xlink:href="#DejaVuSans-48" transform="translate(787.4375 0)"/>
      <use xlink:href="#DejaVuSans-3" transform="translate(848.96875 0)"/>
      <use xlink:href="#DejaVuSans-b" transform="translate(880.75 0)"/>
      <use xlink:href="#DejaVuSans-51" transform="translate(919.765625 0)"/>
      <use xlink:href="#DejaVuSans-52" transform="translate(983.140625 0)"/>
      <use xlink:href="#DejaVuSans-47" transform="translate(1044.328125 0)"/>
      <use xlink:href="#DejaVuSans-48" transform="translate(1107.8125 0)"/>
      <use xlink:href="#DejaVuSans-56" transform="translate(1169.34375 0)"/>
      <use xlink:href="#DejaVuSans-3" transform="translate(1221.4375 0)"/>
      <use xlink:href="#DejaVuSans-53" transform="translate(1253.21875 0)"/>
      <use xlink:href="#DejaVuSans-4c" transform="translate(1316.703125 0)"/>
      <use xlink:href="#DejaVuSans-51" transform="translate(1344.484375 0)"/>
      <use xlink:href="#DejaVuSans-51" transform="translate(1407.859375 0)"/>
      <use xlink:href="#DejaVuSans-48" transform="translate(1471.234375 0)"/>
      <use xlink:href="#DejaVuSans-47" transform="translate(1532.765625 0)"/>
      <use xlink:href="#DejaVuSans-c" transform="translate(1596.25 0)"/>
     </g>
    </g>
   </g>
   <g id="patch_9">
    <path d="M 40.925781 317.877656 
L 40.925781 64.563047 
" style="fill: none; stroke: #000000; stroke-width: 0.8; stroke-linejoin: miter; stroke-linecap: square"/>
   </g>
   <g id="patch_10">
    <path d="M 415.720259 317.877656 
L 415.720259 64.563047 
" style="fill: none; stroke: #000000; stroke-width: 0.8; stroke-linejoin: miter; stroke-linecap: square"/>
   </g>
   <g id="patch_11">
    <path d="M 40.925781 317.877656 
L 415.720259 317.877656 
" style="fill: none; stroke: #000000; stroke-width: 0.8; stroke-linejoin: miter; stroke-linecap: square"/>
   </g>
   <g id="patch_12">
    <path d="M 40.925781 64.563047 
L 415.720259 64.563047 
" style="fill: none; stroke: #000000; stroke-width: 0.8; stroke-linejoin: miter; stroke-linecap: square"/>
   </g>
   <g id="text_12">
    <!-- 32.0 -->
    <g transform="translate(72.511161 83.91574) scale(0.08 -0.08)">
     <defs>
      <path id="DejaVuSans-11" d="M 684 794 
L 1344 794 
L 1344 0 
L 684 0 
L 684 794 
z
" transform="scale(0.015625)"/>
     </defs>
     <use xlink:href="#DejaVuSans-16"/>
     <use xlink:href="#DejaVuSans-15" transform="translate(63.625 0)"/>
     <use xlink:href="#DejaVuSans-11" transform="translate(127.25 0)"/>
     <use xlink:href="#DejaVuSans-13" transform="translate(159.03125 0)"/>
    </g>
   </g>
   <g id="text_13">
    <!-- 29.6 -->
    <g transform="translate(195.961253 101.106578) scale(0.08 -0.08)">
     <defs>
      <path id="DejaVuSans-1c" d="M 703 97 
L 703 672 
Q 941 559 1184 500 
Q 1428 441 1663 441 
Q 2288 441 2617 861 
Q 2947 1281 2994 2138 
Q 2813 1869 2534 1725 
Q 2256 1581 1919 1581 
Q 1219 1581 811 2004 
Q 403 2428 403 3163 
Q 403 3881 828 4315 
Q 1253 4750 1959 4750 
Q 2769 4750 3195 4129 
Q 3622 3509 3622 2328 
Q 3622 1225 3098 567 
Q 2575 -91 1691 -91 
Q 1453 -91 1209 -44 
Q 966 3 703 97 
z
M 1959 2075 
Q 2384 2075 2632 2365 
Q 2881 2656 2881 3163 
Q 2881 3666 2632 3958 
Q 2384 4250 1959 4250 
Q 1534 4250 1286 3958 
Q 1038 3666 1038 3163 
Q 1038 2656 1286 2365 
Q 1534 2075 1959 2075 
z
" transform="scale(0.015625)"/>
      <path id="DejaVuSans-19" d="M 2113 2584 
Q 1688 2584 1439 2293 
Q 1191 2003 1191 1497 
Q 1191 994 1439 701 
Q 1688 409 2113 409 
Q 2538 409 2786 701 
Q 3034 994 3034 1497 
Q 3034 2003 2786 2293 
Q 2538 2584 2113 2584 
z
M 3366 4563 
L 3366 3988 
Q 3128 4100 2886 4159 
Q 2644 4219 2406 4219 
Q 1781 4219 1451 3797 
Q 1122 3375 1075 2522 
Q 1259 2794 1537 2939 
Q 1816 3084 2150 3084 
Q 2853 3084 3261 2657 
Q 3669 2231 3669 1497 
Q 3669 778 3244 343 
Q 2819 -91 2113 -91 
Q 1303 -91 875 529 
Q 447 1150 447 2328 
Q 447 3434 972 4092 
Q 1497 4750 2381 4750 
Q 2619 4750 2861 4703 
Q 3103 4656 3366 4563 
z
" transform="scale(0.015625)"/>
     </defs>
     <use xlink:href="#DejaVuSans-15"/>
     <use xlink:href="#DejaVuSans-1c" transform="translate(63.625 0)"/>
     <use xlink:href="#DejaVuSans-11" transform="translate(127.25 0)"/>
     <use xlink:href="#DejaVuSans-19" transform="translate(159.03125 0)"/>
    </g>
   </g>
   <g id="text_14">
    <!-- 33.3 -->
    <g transform="translate(319.411344 74.703772) scale(0.08 -0.08)">
     <use xlink:href="#DejaVuSans-16"/>
     <use xlink:href="#DejaVuSans-16" transform="translate(63.625 0)"/>
     <use xlink:href="#DejaVuSans-11" transform="translate(127.25 0)"/>
     <use xlink:href="#DejaVuSans-16" transform="translate(159.03125 0)"/>
    </g>
   </g>
   <g id="text_15">
    <!-- 2.6 -->
    <g transform="translate(121.967196 297.096634) scale(0.08 -0.08)">
     <use xlink:href="#DejaVuSans-15"/>
     <use xlink:href="#DejaVuSans-11" transform="translate(63.625 0)"/>
     <use xlink:href="#DejaVuSans-19" transform="translate(95.40625 0)"/>
    </g>
   </g>
   <g id="text_16">
    <!-- 2.5 -->
    <g transform="translate(245.417287 297.676916) scale(0.08 -0.08)">
     <use xlink:href="#DejaVuSans-15"/>
     <use xlink:href="#DejaVuSans-11" transform="translate(63.625 0)"/>
     <use xlink:href="#DejaVuSans-18" transform="translate(95.40625 0)"/>
    </g>
   </g>
   <g id="text_17">
    <!-- 2.5 -->
    <g transform="translate(368.867379 297.676916) scale(0.08 -0.08)">
     <use xlink:href="#DejaVuSans-15"/>
     <use xlink:href="#DejaVuSans-11" transform="translate(63.625 0)"/>
     <use xlink:href="#DejaVuSans-18" transform="translate(95.40625 0)"/>
    </g>
   </g>
   <g id="text_18">
    <!-- Kernel size: CDE vs switch -->
    <g transform="translate(149.759582 58.563047) scale(0.12 -0.12)">
     <defs>
      <path id="DejaVuSans-2e" d="M 628 4666 
L 1259 4666 
L 1259 2694 
L 3353 4666 
L 4166 4666 
L 1850 2491 
L 4331 0 
L 3500 0 
L 1259 2247 
L 1259 0 
L 628 0 
L 628 4666 
z
" transform="scale(0.015625)"/>
      <path id="DejaVuSans-1d" d="M 750 794 
L 1409 794 
L 1409 0 
L 750 0 
L 750 794 
z
M 750 3309 
L 1409 3309 
L 1409 2516 
L 750 2516 
L 750 3309 
z
" transform="scale(0.015625)"/>
      <path id="DejaVuSans-27" d="M 1259 4147 
L 1259 519 
L 2022 519 
Q 2988 519 3436 956 
Q 3884 1394 3884 2338 
Q 3884 3275 3436 3711 
Q 2988 4147 2022 4147 
L 1259 4147 
z
M 628 4666 
L 1925 4666 
Q 3281 4666 3915 4102 
Q 4550 3538 4550 2338 
Q 4550 1131 3912 565 
Q 3275 0 1925 0 
L 628 0 
L 628 4666 
z
" transform="scale(0.015625)"/>
      <path id="DejaVuSans-59" d="M 191 3500 
L 800 3500 
L 1894 563 
L 2988 3500 
L 3597 3500 
L 2284 0 
L 1503 0 
L 191 3500 
z
" transform="scale(0.015625)"/>
      <path id="DejaVuSans-5a" d="M 269 3500 
L 844 3500 
L 1563 769 
L 2278 3500 
L 2956 3500 
L 3675 769 
L 4391 3500 
L 4966 3500 
L 4050 0 
L 3372 0 
L 2619 2869 
L 1863 0 
L 1184 0 
L 269 3500 
z
" transform="scale(0.015625)"/>
      <path id="DejaVuSans-57" d="M 1172 4494 
L 1172 3500 
L 2356 3500 
L 2356 3053 
L 1172 3053 
L 1172 1153 
Q 1172 725 1289 603 
Q 1406 481 1766 481 
L 2356 481 
L 2356 0 
L 1766 0 
Q 1100 0 847 248 
Q 594 497 594 1153 
L 594 3053 
L 172 3053 
L 172 3500 
L 594 3500 
L 594 4494 
L 1172 4494 
z
" transform="scale(0.015625)"/>
      <path id="DejaVuSans-46" d="M 3122 3366 
L 3122 2828 
Q 2878 2963 2633 3030 
Q 2388 3097 2138 3097 
Q 1578 3097 1268 2742 
Q 959 2388 959 1747 
Q 959 1106 1268 751 
Q 1578 397 2138 397 
Q 2388 397 2633 464 
Q 2878 531 3122 666 
L 3122 134 
Q 2881 22 2623 -34 
Q 2366 -91 2075 -91 
Q 1284 -91 818 406 
Q 353 903 353 1747 
Q 353 2603 823 3093 
Q 1294 3584 2113 3584 
Q 2378 3584 2631 3529 
Q 2884 3475 3122 3366 
z
" transform="scale(0.015625)"/>
      <path id="DejaVuSans-4b" d="M 3513 2113 
L 3513 0 
L 2938 0 
L 2938 2094 
Q 2938 2591 2744 2837 
Q 2550 3084 2163 3084 
Q 1697 3084 1428 2787 
Q 1159 2491 1159 1978 
L 1159 0 
L 581 0 
L 581 4863 
L 1159 4863 
L 1159 2956 
Q 1366 3272 1645 3428 
Q 1925 3584 2291 3584 
Q 2894 3584 3203 3211 
Q 3513 2838 3513 2113 
z
" transform="scale(0.015625)"/>
     </defs>
     <use xlink:href="#DejaVuSans-2e"/>
     <use xlink:href="#DejaVuSans-48" transform="translate(60.59375 0)"/>
     <use xlink:href="#DejaVuSans-55" transform="translate(122.125 0)"/>
     <use xlink:href="#DejaVuSans-51" transform="translate(161.484375 0)"/>
     <use xlink:href="#DejaVuSans-48" transform="translate(224.859375 0)"/>
     <use xlink:href="#DejaVuSans-4f" transform="translate(286.390625 0)"/>
     <use xlink:href="#DejaVuSans-3" transform="translate(314.171875 0)"/>
     <use xlink:href="#DejaVuSans-56" transform="translate(345.953125 0)"/>
     <use xlink:href="#DejaVuSans-4c" transform="translate(398.046875 0)"/>
     <use xlink:href="#DejaVuSans-5d" transform="translate(425.828125 0)"/>
     <use xlink:href="#DejaVuSans-48" transform="translate(478.3125 0)"/>
     <use xlink:href="#DejaVuSans-1d" transform="translate(539.84375 0)"/>
     <use xlink:href="#DejaVuSans-3" transform="translate(573.53125 0)"/>
     <use xlink:href="#DejaVuSans-26" transform="translate(605.3125 0)"/>
     <use xlink:href="#DejaVuSans-27" transform="translate(675.140625 0)"/>
     <use xlink:href="#DejaVuSans-28" transform="translate(752.140625 0)"/>
     <use xlink:href="#DejaVuSans-3" transform="translate(815.328125 0)"/>
     <use xlink:href="#DejaVuSans-59" transform="translate(847.109375 0)"/>
     <use xlink:href="#DejaVuSans-56" transform="translate(906.296875 0)"/>
     <use xlink:href="#DejaVuSans-3" transform="translate(958.390625 0)"/>
     <use xlink:href="#DejaVuSans-56" transform="translate(990.171875 0)"/>
     <use xlink:href="#DejaVuSans-5a" transform="translate(1042.265625 0)"/>
     <use xlink:href="#DejaVuSans-4c" transform="translate(1124.046875 0)"/>
     <use xlink:href="#DejaVuSans-57" transform="translate(1151.828125 0)"/>
     <use xlink:href="#DejaVuSans-46" transform="translate(1191.03125 0)"/>
     <use xlink:href="#DejaVuSans-4b" transform="translate(1246.015625 0)"/>
    </g>
   </g>
   <g id="legend_1">
    <g id="patch_13">
     <path d="M 316.828071 207.721133 
L 408.720259 207.721133 
Q 410.720259 207.721133 410.720259 205.721133 
L 410.720259 176.71957 
Q 410.720259 174.71957 408.720259 174.71957 
L 316.828071 174.71957 
Q 314.828071 174.71957 314.828071 176.71957 
L 314.828071 205.721133 
Q 314.828071 207.721133 316.828071 207.721133 
z
" style="fill: #ffffff; opacity: 0.8; stroke: #cccccc; stroke-linejoin: miter"/>
    </g>
    <g id="patch_14">
     <path d="M 318.828071 186.318008 
L 338.828071 186.318008 
L 338.828071 179.318008 
L 318.828071 179.318008 
z
" style="fill: #4c72b0"/>
    </g>
    <g id="text_19">
     <!-- CDE (union) -->
     <g transform="translate(346.828071 186.318008) scale(0.1 -0.1)">
      <defs>
       <path id="DejaVuSans-58" d="M 544 1381 
L 544 3500 
L 1119 3500 
L 1119 1403 
Q 1119 906 1312 657 
Q 1506 409 1894 409 
Q 2359 409 2629 706 
Q 2900 1003 2900 1516 
L 2900 3500 
L 3475 3500 
L 3475 0 
L 2900 0 
L 2900 538 
Q 2691 219 2414 64 
Q 2138 -91 1772 -91 
Q 1169 -91 856 284 
Q 544 659 544 1381 
z
M 1991 3584 
L 1991 3584 
z
" transform="scale(0.015625)"/>
      </defs>
      <use xlink:href="#DejaVuSans-26"/>
      <use xlink:href="#DejaVuSans-27" transform="translate(69.828125 0)"/>
      <use xlink:href="#DejaVuSans-28" transform="translate(146.828125 0)"/>
      <use xlink:href="#DejaVuSans-3" transform="translate(210.015625 0)"/>
      <use xlink:href="#DejaVuSans-b" transform="translate(241.796875 0)"/>
      <use xlink:href="#DejaVuSans-58" transform="translate(280.8125 0)"/>
      <use xlink:href="#DejaVuSans-51" transform="translate(344.1875 0)"/>
      <use xlink:href="#DejaVuSans-4c" transform="translate(407.5625 0)"/>
      <use xlink:href="#DejaVuSans-52" transform="translate(435.34375 0)"/>
      <use xlink:href="#DejaVuSans-51" transform="translate(496.53125 0)"/>
      <use xlink:href="#DejaVuSans-c" transform="translate(559.90625 0)"/>
     </g>
    </g>
    <g id="patch_15">
     <path d="M 318.828071 201.318789 
L 338.828071 201.318789 
L 338.828071 194.318789 
L 318.828071 194.318789 
z
" style="fill: #c44e52"/>
    </g>
    <g id="text_20">
     <!-- Switch -->
     <g transform="translate(346.828071 201.318789) scale(0.1 -0.1)">
      <use xlink:href="#DejaVuSans-36"/>
      <use xlink:href="#DejaVuSans-5a" transform="translate(63.484375 0)"/>
      <use xlink:href="#DejaVuSans-4c" transform="translate(145.265625 0)"/>
      <use xlink:href="#DejaVuSans-57" transform="translate(173.046875 0)"/>
      <use xlink:href="#DejaVuSans-46" transform="translate(212.25 0)"/>
      <use xlink:href="#DejaVuSans-4b" transform="translate(267.234375 0)"/>
     </g>
    </g>
   </g>
  </g>
  <g id="axes_2">
   <g id="patch_16">
    <path d="M 543.950259 317.877656 
L 918.744736 317.877656 
L 918.744736 64.563047 
L 543.950259 64.563047 
z
" style="fill: #ffffff"/>
   </g>
   <g id="patch_17">
    <path d="M 543.950259 306.363356 
L 652.894417 306.363356 
L 652.894417 295.397355 
L 543.950259 295.397355 
z
" clip-path="url(#p158b694e7a)" style="fill: #4c72b0"/>
   </g>
   <g id="patch_18">
    <path d="M 543.950259 292.655855 
L 714.009433 292.655855 
L 714.009433 281.689855 
L 543.950259 281.689855 
z
" clip-path="url(#p158b694e7a)" style="fill: #4c72b0"/>
   </g>
   <g id="patch_19">
    <path d="M 543.950259 278.948355 
L 750.767015 278.948355 
L 750.767015 267.982354 
L 543.950259 267.982354 
z
" clip-path="url(#p158b694e7a)" style="fill: #4c72b0"/>
   </g>
   <g id="patch_20">
    <path d="M 543.950259 265.240854 
L 764.052888 265.240854 
L 764.052888 254.274854 
L 543.950259 254.274854 
z
" clip-path="url(#p158b694e7a)" style="fill: #4c72b0"/>
   </g>
   <g id="patch_21">
    <path d="M 543.950259 251.533354 
L 873.882772 251.533354 
L 873.882772 240.567353 
L 543.950259 240.567353 
z
" clip-path="url(#p158b694e7a)" style="fill: #4c72b0"/>
   </g>
   <g id="patch_22">
    <path d="M 543.950259 237.825853 
L 882.297158 237.825853 
L 882.297158 226.859853 
L 543.950259 226.859853 
z
" clip-path="url(#p158b694e7a)" style="fill: #4c72b0"/>
   </g>
   <g id="patch_23">
    <path d="M 543.950259 224.118353 
L 895.583031 224.118353 
L 895.583031 213.152352 
L 543.950259 213.152352 
z
" clip-path="url(#p158b694e7a)" style="fill: #4c72b0"/>
   </g>
   <g id="patch_24">
    <path d="M 543.950259 210.410852 
L 895.583031 210.410852 
L 895.583031 199.444852 
L 543.950259 199.444852 
z
" clip-path="url(#p158b694e7a)" style="fill: #4c72b0"/>
   </g>
   <g id="patch_25">
    <path d="M 543.950259 196.703352 
L 900.89738 196.703352 
L 900.89738 185.737351 
L 543.950259 185.737351 
z
" clip-path="url(#p158b694e7a)" style="fill: #4c72b0"/>
   </g>
   <g id="patch_26">
    <path d="M 543.950259 182.995851 
L 900.89738 182.995851 
L 900.89738 172.029851 
L 543.950259 172.029851 
z
" clip-path="url(#p158b694e7a)" style="fill: #4c72b0"/>
   </g>
   <g id="patch_27">
    <path d="M 543.950259 169.288351 
L 900.89738 169.288351 
L 900.89738 158.32235 
L 543.950259 158.32235 
z
" clip-path="url(#p158b694e7a)" style="fill: #4c72b0"/>
   </g>
   <g id="patch_28">
    <path d="M 543.950259 155.58085 
L 900.89738 155.58085 
L 900.89738 144.61485 
L 543.950259 144.61485 
z
" clip-path="url(#p158b694e7a)" style="fill: #4c72b0"/>
   </g>
   <g id="patch_29">
    <path d="M 543.950259 141.87335 
L 900.89738 141.87335 
L 900.89738 130.907349 
L 543.950259 130.907349 
z
" clip-path="url(#p158b694e7a)" style="fill: #4c72b0"/>
   </g>
   <g id="patch_30">
    <path d="M 543.950259 128.165849 
L 900.89738 128.165849 
L 900.89738 117.199849 
L 543.950259 117.199849 
z
" clip-path="url(#p158b694e7a)" style="fill: #4c72b0"/>
   </g>
   <g id="patch_31">
    <path d="M 543.950259 114.458349 
L 900.89738 114.458349 
L 900.89738 103.492348 
L 543.950259 103.492348 
z
" clip-path="url(#p158b694e7a)" style="fill: #4c72b0"/>
   </g>
   <g id="patch_32">
    <path d="M 543.950259 100.750848 
L 900.89738 100.750848 
L 900.89738 89.784848 
L 543.950259 89.784848 
z
" clip-path="url(#p158b694e7a)" style="fill: #4c72b0"/>
   </g>
   <g id="patch_33">
    <path d="M 543.950259 87.043348 
L 900.89738 87.043348 
L 900.89738 76.077347 
L 543.950259 76.077347 
z
" clip-path="url(#p158b694e7a)" style="fill: #4c72b0"/>
   </g>
   <g id="matplotlib.axis_3">
    <g id="xtick_4">
     <g id="line2d_11">
      <g>
       <use xlink:href="#ma8ab43377e" x="543.950259" y="317.877656" style="stroke: #000000; stroke-width: 0.8"/>
      </g>
     </g>
     <g id="text_21">
      <!-- 0 -->
      <g transform="translate(540.769009 332.475312) scale(0.1 -0.1)">
       <use xlink:href="#DejaVuSans-13"/>
      </g>
     </g>
    </g>
    <g id="xtick_5">
     <g id="line2d_12">
      <g>
       <use xlink:href="#ma8ab43377e" x="588.236502" y="317.877656" style="stroke: #000000; stroke-width: 0.8"/>
      </g>
     </g>
     <g id="text_22">
      <!-- 100 -->
      <g transform="translate(578.692752 332.475312) scale(0.1 -0.1)">
       <use xlink:href="#DejaVuSans-14"/>
       <use xlink:href="#DejaVuSans-13" transform="translate(63.625 0)"/>
       <use xlink:href="#DejaVuSans-13" transform="translate(127.25 0)"/>
      </g>
     </g>
    </g>
    <g id="xtick_6">
     <g id="line2d_13">
      <g>
       <use xlink:href="#ma8ab43377e" x="632.522745" y="317.877656" style="stroke: #000000; stroke-width: 0.8"/>
      </g>
     </g>
     <g id="text_23">
      <!-- 200 -->
      <g transform="translate(622.978995 332.475312) scale(0.1 -0.1)">
       <use xlink:href="#DejaVuSans-15"/>
       <use xlink:href="#DejaVuSans-13" transform="translate(63.625 0)"/>
       <use xlink:href="#DejaVuSans-13" transform="translate(127.25 0)"/>
      </g>
     </g>
    </g>
    <g id="xtick_7">
     <g id="line2d_14">
      <g>
       <use xlink:href="#ma8ab43377e" x="676.808989" y="317.877656" style="stroke: #000000; stroke-width: 0.8"/>
      </g>
     </g>
     <g id="text_24">
      <!-- 300 -->
      <g transform="translate(667.265239 332.475312) scale(0.1 -0.1)">
       <use xlink:href="#DejaVuSans-16"/>
       <use xlink:href="#DejaVuSans-13" transform="translate(63.625 0)"/>
       <use xlink:href="#DejaVuSans-13" transform="translate(127.25 0)"/>
      </g>
     </g>
    </g>
    <g id="xtick_8">
     <g id="line2d_15">
      <g>
       <use xlink:href="#ma8ab43377e" x="721.095232" y="317.877656" style="stroke: #000000; stroke-width: 0.8"/>
      </g>
     </g>
     <g id="text_25">
      <!-- 400 -->
      <g transform="translate(711.551482 332.475312) scale(0.1 -0.1)">
       <defs>
        <path id="DejaVuSans-17" d="M 2419 4116 
L 825 1625 
L 2419 1625 
L 2419 4116 
z
M 2253 4666 
L 3047 4666 
L 3047 1625 
L 3713 1625 
L 3713 1100 
L 3047 1100 
L 3047 0 
L 2419 0 
L 2419 1100 
L 313 1100 
L 313 1709 
L 2253 4666 
z
" transform="scale(0.015625)"/>
       </defs>
       <use xlink:href="#DejaVuSans-17"/>
       <use xlink:href="#DejaVuSans-13" transform="translate(63.625 0)"/>
       <use xlink:href="#DejaVuSans-13" transform="translate(127.25 0)"/>
      </g>
     </g>
    </g>
    <g id="xtick_9">
     <g id="line2d_16">
      <g>
       <use xlink:href="#ma8ab43377e" x="765.381475" y="317.877656" style="stroke: #000000; stroke-width: 0.8"/>
      </g>
     </g>
     <g id="text_26">
      <!-- 500 -->
      <g transform="translate(755.837725 332.475312) scale(0.1 -0.1)">
       <use xlink:href="#DejaVuSans-18"/>
       <use xlink:href="#DejaVuSans-13" transform="translate(63.625 0)"/>
       <use xlink:href="#DejaVuSans-13" transform="translate(127.25 0)"/>
      </g>
     </g>
    </g>
    <g id="xtick_10">
     <g id="line2d_17">
      <g>
       <use xlink:href="#ma8ab43377e" x="809.667719" y="317.877656" style="stroke: #000000; stroke-width: 0.8"/>
      </g>
     </g>
     <g id="text_27">
      <!-- 600 -->
      <g transform="translate(800.123969 332.475312) scale(0.1 -0.1)">
       <use xlink:href="#DejaVuSans-19"/>
       <use xlink:href="#DejaVuSans-13" transform="translate(63.625 0)"/>
       <use xlink:href="#DejaVuSans-13" transform="translate(127.25 0)"/>
      </g>
     </g>
    </g>
    <g id="xtick_11">
     <g id="line2d_18">
      <g>
       <use xlink:href="#ma8ab43377e" x="853.953962" y="317.877656" style="stroke: #000000; stroke-width: 0.8"/>
      </g>
     </g>
     <g id="text_28">
      <!-- 700 -->
      <g transform="translate(844.410212 332.475312) scale(0.1 -0.1)">
       <defs>
        <path id="DejaVuSans-1a" d="M 525 4666 
L 3525 4666 
L 3525 4397 
L 1831 0 
L 1172 0 
L 2766 4134 
L 525 4134 
L 525 4666 
z
" transform="scale(0.015625)"/>
       </defs>
       <use xlink:href="#DejaVuSans-1a"/>
       <use xlink:href="#DejaVuSans-13" transform="translate(63.625 0)"/>
       <use xlink:href="#DejaVuSans-13" transform="translate(127.25 0)"/>
      </g>
     </g>
    </g>
    <g id="xtick_12">
     <g id="line2d_19">
      <g>
       <use xlink:href="#ma8ab43377e" x="898.240206" y="317.877656" style="stroke: #000000; stroke-width: 0.8"/>
      </g>
     </g>
     <g id="text_29">
      <!-- 800 -->
      <g transform="translate(888.696456 332.475312) scale(0.1 -0.1)">
       <defs>
        <path id="DejaVuSans-1b" d="M 2034 2216 
Q 1584 2216 1326 1975 
Q 1069 1734 1069 1313 
Q 1069 891 1326 650 
Q 1584 409 2034 409 
Q 2484 409 2743 651 
Q 3003 894 3003 1313 
Q 3003 1734 2745 1975 
Q 2488 2216 2034 2216 
z
M 1403 2484 
Q 997 2584 770 2862 
Q 544 3141 544 3541 
Q 544 4100 942 4425 
Q 1341 4750 2034 4750 
Q 2731 4750 3128 4425 
Q 3525 4100 3525 3541 
Q 3525 3141 3298 2862 
Q 3072 2584 2669 2484 
Q 3125 2378 3379 2068 
Q 3634 1759 3634 1313 
Q 3634 634 3220 271 
Q 2806 -91 2034 -91 
Q 1263 -91 848 271 
Q 434 634 434 1313 
Q 434 1759 690 2068 
Q 947 2378 1403 2484 
z
M 1172 3481 
Q 1172 3119 1398 2916 
Q 1625 2713 2034 2713 
Q 2441 2713 2670 2916 
Q 2900 3119 2900 3481 
Q 2900 3844 2670 4047 
Q 2441 4250 2034 4250 
Q 1625 4250 1398 4047 
Q 1172 3844 1172 3481 
z
" transform="scale(0.015625)"/>
       </defs>
       <use xlink:href="#DejaVuSans-1b"/>
       <use xlink:href="#DejaVuSans-13" transform="translate(63.625 0)"/>
       <use xlink:href="#DejaVuSans-13" transform="translate(127.25 0)"/>
      </g>
     </g>
    </g>
    <g id="text_30">
     <!-- # patients whose CDE kernel touches the pathway -->
     <g transform="translate(604.268591 346.476094) scale(0.1 -0.1)">
      <defs>
       <path id="DejaVuSans-6" d="M 3272 2816 
L 2363 2816 
L 2100 1772 
L 3016 1772 
L 3272 2816 
z
M 2803 4594 
L 2478 3297 
L 3391 3297 
L 3719 4594 
L 4219 4594 
L 3897 3297 
L 4872 3297 
L 4872 2816 
L 3775 2816 
L 3519 1772 
L 4513 1772 
L 4513 1294 
L 3397 1294 
L 3072 0 
L 2572 0 
L 2894 1294 
L 1978 1294 
L 1656 0 
L 1153 0 
L 1478 1294 
L 494 1294 
L 494 1772 
L 1594 1772 
L 1856 2816 
L 850 2816 
L 850 3297 
L 1978 3297 
L 2297 4594 
L 2803 4594 
z
" transform="scale(0.015625)"/>
       <path id="DejaVuSans-5c" d="M 2059 -325 
Q 1816 -950 1584 -1140 
Q 1353 -1331 966 -1331 
L 506 -1331 
L 506 -850 
L 844 -850 
Q 1081 -850 1212 -737 
Q 1344 -625 1503 -206 
L 1606 56 
L 191 3500 
L 800 3500 
L 1894 763 
L 2988 3500 
L 3597 3500 
L 2059 -325 
z
" transform="scale(0.015625)"/>
      </defs>
      <use xlink:href="#DejaVuSans-6"/>
      <use xlink:href="#DejaVuSans-3" transform="translate(83.796875 0)"/>
      <use xlink:href="#DejaVuSans-53" transform="translate(115.578125 0)"/>
      <use xlink:href="#DejaVuSans-44" transform="translate(179.0625 0)"/>
      <use xlink:href="#DejaVuSans-57" transform="translate(240.34375 0)"/>
      <use xlink:href="#DejaVuSans-4c" transform="translate(279.546875 0)"/>
      <use xlink:href="#DejaVuSans-48" transform="translate(307.328125 0)"/>
      <use xlink:href="#DejaVuSans-51" transform="translate(368.859375 0)"/>
      <use xlink:href="#DejaVuSans-57" transform="translate(432.234375 0)"/>
      <use xlink:href="#DejaVuSans-56" transform="translate(471.4375 0)"/>
      <use xlink:href="#DejaVuSans-3" transform="translate(523.53125 0)"/>
      <use xlink:href="#DejaVuSans-5a" transform="translate(555.3125 0)"/>
      <use xlink:href="#DejaVuSans-4b" transform="translate(637.09375 0)"/>
      <use xlink:href="#DejaVuSans-52" transform="translate(700.46875 0)"/>
      <use xlink:href="#DejaVuSans-56" transform="translate(761.65625 0)"/>
      <use xlink:href="#DejaVuSans-48" transform="translate(813.75 0)"/>
      <use xlink:href="#DejaVuSans-3" transform="translate(875.28125 0)"/>
      <use xlink:href="#DejaVuSans-26" transform="translate(907.0625 0)"/>
      <use xlink:href="#DejaVuSans-27" transform="translate(976.890625 0)"/>
      <use xlink:href="#DejaVuSans-28" transform="translate(1053.890625 0)"/>
      <use xlink:href="#DejaVuSans-3" transform="translate(1117.078125 0)"/>
      <use xlink:href="#DejaVuSans-4e" transform="translate(1148.859375 0)"/>
      <use xlink:href="#DejaVuSans-48" transform="translate(1203.203125 0)"/>
      <use xlink:href="#DejaVuSans-55" transform="translate(1264.734375 0)"/>
      <use xlink:href="#DejaVuSans-51" transform="translate(1304.09375 0)"/>
      <use xlink:href="#DejaVuSans-48" transform="translate(1367.46875 0)"/>
      <use xlink:href="#DejaVuSans-4f" transform="translate(1429 0)"/>
      <use xlink:href="#DejaVuSans-3" transform="translate(1456.78125 0)"/>
      <use xlink:href="#DejaVuSans-57" transform="translate(1488.5625 0)"/>
      <use xlink:href="#DejaVuSans-52" transform="translate(1527.765625 0)"/>
      <use xlink:href="#DejaVuSans-58" transform="translate(1588.953125 0)"/>
      <use xlink:href="#DejaVuSans-46" transform="translate(1652.328125 0)"/>
      <use xlink:href="#DejaVuSans-4b" transform="translate(1707.3125 0)"/>
      <use xlink:href="#DejaVuSans-48" transform="translate(1770.6875 0)"/>
      <use xlink:href="#DejaVuSans-56" transform="translate(1832.21875 0)"/>
      <use xlink:href="#DejaVuSans-3" transform="translate(1884.3125 0)"/>
      <use xlink:href="#DejaVuSans-57" transform="translate(1916.09375 0)"/>
      <use xlink:href="#DejaVuSans-4b" transform="translate(1955.296875 0)"/>
      <use xlink:href="#DejaVuSans-48" transform="translate(2018.671875 0)"/>
      <use xlink:href="#DejaVuSans-3" transform="translate(2080.203125 0)"/>
      <use xlink:href="#DejaVuSans-53" transform="translate(2111.984375 0)"/>
      <use xlink:href="#DejaVuSans-44" transform="translate(2175.46875 0)"/>
      <use xlink:href="#DejaVuSans-57" transform="translate(2236.75 0)"/>
      <use xlink:href="#DejaVuSans-4b" transform="translate(2275.953125 0)"/>
      <use xlink:href="#DejaVuSans-5a" transform="translate(2339.328125 0)"/>
      <use xlink:href="#DejaVuSans-44" transform="translate(2421.109375 0)"/>
      <use xlink:href="#DejaVuSans-5c" transform="translate(2482.390625 0)"/>
     </g>
    </g>
   </g>
   <g id="matplotlib.axis_4">
    <g id="ytick_8">
     <g id="line2d_20">
      <g>
       <use xlink:href="#m8ad4a7c47d" x="543.950259" y="300.880356" style="stroke: #000000; stroke-width: 0.8"/>
      </g>
     </g>
     <g id="text_31">
      <!-- RTK_Insulin -->
      <g transform="translate(480.336196 304.679574) scale(0.1 -0.1)">
       <defs>
        <path id="DejaVuSans-42" d="M 3263 -1063 
L 3263 -1509 
L -63 -1509 
L -63 -1063 
L 3263 -1063 
z
" transform="scale(0.015625)"/>
       </defs>
       <use xlink:href="#DejaVuSans-35"/>
       <use xlink:href="#DejaVuSans-37" transform="translate(62.203125 0)"/>
       <use xlink:href="#DejaVuSans-2e" transform="translate(123.28125 0)"/>
       <use xlink:href="#DejaVuSans-42" transform="translate(188.859375 0)"/>
       <use xlink:href="#DejaVuSans-2c" transform="translate(238.859375 0)"/>
       <use xlink:href="#DejaVuSans-51" transform="translate(268.359375 0)"/>
       <use xlink:href="#DejaVuSans-56" transform="translate(331.734375 0)"/>
       <use xlink:href="#DejaVuSans-58" transform="translate(383.828125 0)"/>
       <use xlink:href="#DejaVuSans-4f" transform="translate(447.203125 0)"/>
       <use xlink:href="#DejaVuSans-4c" transform="translate(474.984375 0)"/>
       <use xlink:href="#DejaVuSans-51" transform="translate(502.765625 0)"/>
      </g>
     </g>
    </g>
    <g id="ytick_9">
     <g id="line2d_21">
      <g>
       <use xlink:href="#m8ad4a7c47d" x="543.950259" y="287.172855" style="stroke: #000000; stroke-width: 0.8"/>
      </g>
     </g>
     <g id="text_32">
      <!-- Hippo -->
      <g transform="translate(507.836196 290.972074) scale(0.1 -0.1)">
       <defs>
        <path id="DejaVuSans-2b" d="M 628 4666 
L 1259 4666 
L 1259 2753 
L 3553 2753 
L 3553 4666 
L 4184 4666 
L 4184 0 
L 3553 0 
L 3553 2222 
L 1259 2222 
L 1259 0 
L 628 0 
L 628 4666 
z
" transform="scale(0.015625)"/>
       </defs>
       <use xlink:href="#DejaVuSans-2b"/>
       <use xlink:href="#DejaVuSans-4c" transform="translate(75.203125 0)"/>
       <use xlink:href="#DejaVuSans-53" transform="translate(102.984375 0)"/>
       <use xlink:href="#DejaVuSans-53" transform="translate(166.46875 0)"/>
       <use xlink:href="#DejaVuSans-52" transform="translate(229.953125 0)"/>
      </g>
     </g>
    </g>
    <g id="ytick_10">
     <g id="line2d_22">
      <g>
       <use xlink:href="#m8ad4a7c47d" x="543.950259" y="273.465355" style="stroke: #000000; stroke-width: 0.8"/>
      </g>
     </g>
     <g id="text_33">
      <!-- Wnt -->
      <g transform="translate(516.804946 277.264183) scale(0.1 -0.1)">
       <defs>
        <path id="DejaVuSans-3a" d="M 213 4666 
L 850 4666 
L 1831 722 
L 2809 4666 
L 3519 4666 
L 4500 722 
L 5478 4666 
L 6119 4666 
L 4947 0 
L 4153 0 
L 3169 4050 
L 2175 0 
L 1381 0 
L 213 4666 
z
" transform="scale(0.015625)"/>
       </defs>
       <use xlink:href="#DejaVuSans-3a"/>
       <use xlink:href="#DejaVuSans-51" transform="translate(98.875 0)"/>
       <use xlink:href="#DejaVuSans-57" transform="translate(162.25 0)"/>
      </g>
     </g>
    </g>
    <g id="ytick_11">
     <g id="line2d_23">
      <g>
       <use xlink:href="#m8ad4a7c47d" x="543.950259" y="259.757854" style="stroke: #000000; stroke-width: 0.8"/>
      </g>
     </g>
     <g id="text_34">
      <!-- TF -->
      <g transform="translate(525.090884 263.556682) scale(0.1 -0.1)">
       <defs>
        <path id="DejaVuSans-29" d="M 628 4666 
L 3309 4666 
L 3309 4134 
L 1259 4134 
L 1259 2759 
L 3109 2759 
L 3109 2228 
L 1259 2228 
L 1259 0 
L 628 0 
L 628 4666 
z
" transform="scale(0.015625)"/>
       </defs>
       <use xlink:href="#DejaVuSans-37"/>
       <use xlink:href="#DejaVuSans-29" transform="translate(61.078125 0)"/>
      </g>
     </g>
    </g>
    <g id="ytick_12">
     <g id="line2d_24">
      <g>
       <use xlink:href="#m8ad4a7c47d" x="543.950259" y="246.050354" style="stroke: #000000; stroke-width: 0.8"/>
      </g>
     </g>
     <g id="text_35">
      <!-- RTK_EGFR -->
      <g transform="translate(486.297134 249.849182) scale(0.1 -0.1)">
       <use xlink:href="#DejaVuSans-35"/>
       <use xlink:href="#DejaVuSans-37" transform="translate(62.203125 0)"/>
       <use xlink:href="#DejaVuSans-2e" transform="translate(123.28125 0)"/>
       <use xlink:href="#DejaVuSans-42" transform="translate(188.859375 0)"/>
       <use xlink:href="#DejaVuSans-28" transform="translate(238.859375 0)"/>
       <use xlink:href="#DejaVuSans-2a" transform="translate(302.046875 0)"/>
       <use xlink:href="#DejaVuSans-29" transform="translate(379.53125 0)"/>
       <use xlink:href="#DejaVuSans-35" transform="translate(437.046875 0)"/>
      </g>
     </g>
    </g>
    <g id="ytick_13">
     <g id="line2d_25">
      <g>
       <use xlink:href="#m8ad4a7c47d" x="543.950259" y="232.342853" style="stroke: #000000; stroke-width: 0.8"/>
      </g>
     </g>
     <g id="text_36">
      <!-- PI3K -->
      <g transform="translate(515.050259 236.141681) scale(0.1 -0.1)">
       <use xlink:href="#DejaVuSans-33"/>
       <use xlink:href="#DejaVuSans-2c" transform="translate(60.296875 0)"/>
       <use xlink:href="#DejaVuSans-16" transform="translate(89.796875 0)"/>
       <use xlink:href="#DejaVuSans-2e" transform="translate(153.421875 0)"/>
      </g>
     </g>
    </g>
    <g id="ytick_14">
     <g id="line2d_26">
      <g>
       <use xlink:href="#m8ad4a7c47d" x="543.950259" y="218.635353" style="stroke: #000000; stroke-width: 0.8"/>
      </g>
     </g>
     <g id="text_37">
      <!-- Apoptosis_Extrinsic -->
      <g transform="translate(440.187759 222.434571) scale(0.1 -0.1)">
       <defs>
        <path id="DejaVuSans-5b" d="M 3513 3500 
L 2247 1797 
L 3578 0 
L 2900 0 
L 1881 1375 
L 863 0 
L 184 0 
L 1544 1831 
L 300 3500 
L 978 3500 
L 1906 2253 
L 2834 3500 
L 3513 3500 
z
" transform="scale(0.015625)"/>
       </defs>
       <use xlink:href="#DejaVuSans-24"/>
       <use xlink:href="#DejaVuSans-53" transform="translate(68.40625 0)"/>
       <use xlink:href="#DejaVuSans-52" transform="translate(131.890625 0)"/>
       <use xlink:href="#DejaVuSans-53" transform="translate(193.078125 0)"/>
       <use xlink:href="#DejaVuSans-57" transform="translate(256.5625 0)"/>
       <use xlink:href="#DejaVuSans-52" transform="translate(295.765625 0)"/>
       <use xlink:href="#DejaVuSans-56" transform="translate(356.953125 0)"/>
       <use xlink:href="#DejaVuSans-4c" transform="translate(409.046875 0)"/>
       <use xlink:href="#DejaVuSans-56" transform="translate(436.828125 0)"/>
       <use xlink:href="#DejaVuSans-42" transform="translate(488.921875 0)"/>
       <use xlink:href="#DejaVuSans-28" transform="translate(538.921875 0)"/>
       <use xlink:href="#DejaVuSans-5b" transform="translate(602.109375 0)"/>
       <use xlink:href="#DejaVuSans-57" transform="translate(661.296875 0)"/>
       <use xlink:href="#DejaVuSans-55" transform="translate(700.5 0)"/>
       <use xlink:href="#DejaVuSans-4c" transform="translate(741.609375 0)"/>
       <use xlink:href="#DejaVuSans-51" transform="translate(769.390625 0)"/>
       <use xlink:href="#DejaVuSans-56" transform="translate(832.765625 0)"/>
       <use xlink:href="#DejaVuSans-4c" transform="translate(884.859375 0)"/>
       <use xlink:href="#DejaVuSans-46" transform="translate(912.640625 0)"/>
      </g>
     </g>
    </g>
    <g id="ytick_15">
     <g id="line2d_27">
      <g>
       <use xlink:href="#m8ad4a7c47d" x="543.950259" y="204.927852" style="stroke: #000000; stroke-width: 0.8"/>
      </g>
     </g>
     <g id="text_38">
      <!-- Apoptosis_Intrinsic -->
      <g transform="translate(443.137759 208.727071) scale(0.1 -0.1)">
       <use xlink:href="#DejaVuSans-24"/>
       <use xlink:href="#DejaVuSans-53" transform="translate(68.40625 0)"/>
       <use xlink:href="#DejaVuSans-52" transform="translate(131.890625 0)"/>
       <use xlink:href="#DejaVuSans-53" transform="translate(193.078125 0)"/>
       <use xlink:href="#DejaVuSans-57" transform="translate(256.5625 0)"/>
       <use xlink:href="#DejaVuSans-52" transform="translate(295.765625 0)"/>
       <use xlink:href="#DejaVuSans-56" transform="translate(356.953125 0)"/>
       <use xlink:href="#DejaVuSans-4c" transform="translate(409.046875 0)"/>
       <use xlink:href="#DejaVuSans-56" transform="translate(436.828125 0)"/>
       <use xlink:href="#DejaVuSans-42" transform="translate(488.921875 0)"/>
       <use xlink:href="#DejaVuSans-2c" transform="translate(538.921875 0)"/>
       <use xlink:href="#DejaVuSans-51" transform="translate(568.421875 0)"/>
       <use xlink:href="#DejaVuSans-57" transform="translate(631.796875 0)"/>
       <use xlink:href="#DejaVuSans-55" transform="translate(671 0)"/>
       <use xlink:href="#DejaVuSans-4c" transform="translate(712.109375 0)"/>
       <use xlink:href="#DejaVuSans-51" transform="translate(739.890625 0)"/>
       <use xlink:href="#DejaVuSans-56" transform="translate(803.265625 0)"/>
       <use xlink:href="#DejaVuSans-4c" transform="translate(855.359375 0)"/>
       <use xlink:href="#DejaVuSans-46" transform="translate(883.140625 0)"/>
      </g>
     </g>
    </g>
    <g id="ytick_16">
     <g id="line2d_28">
      <g>
       <use xlink:href="#m8ad4a7c47d" x="543.950259" y="191.220352" style="stroke: #000000; stroke-width: 0.8"/>
      </g>
     </g>
     <g id="text_39">
      <!-- AKT_Signaling -->
      <g transform="translate(467.037759 195.01957) scale(0.1 -0.1)">
       <defs>
        <path id="DejaVuSans-4a" d="M 2906 1791 
Q 2906 2416 2648 2759 
Q 2391 3103 1925 3103 
Q 1463 3103 1205 2759 
Q 947 2416 947 1791 
Q 947 1169 1205 825 
Q 1463 481 1925 481 
Q 2391 481 2648 825 
Q 2906 1169 2906 1791 
z
M 3481 434 
Q 3481 -459 3084 -895 
Q 2688 -1331 1869 -1331 
Q 1566 -1331 1297 -1286 
Q 1028 -1241 775 -1147 
L 775 -588 
Q 1028 -725 1275 -790 
Q 1522 -856 1778 -856 
Q 2344 -856 2625 -561 
Q 2906 -266 2906 331 
L 2906 616 
Q 2728 306 2450 153 
Q 2172 0 1784 0 
Q 1141 0 747 490 
Q 353 981 353 1791 
Q 353 2603 747 3093 
Q 1141 3584 1784 3584 
Q 2172 3584 2450 3431 
Q 2728 3278 2906 2969 
L 2906 3500 
L 3481 3500 
L 3481 434 
z
" transform="scale(0.015625)"/>
       </defs>
       <use xlink:href="#DejaVuSans-24"/>
       <use xlink:href="#DejaVuSans-2e" transform="translate(68.40625 0)"/>
       <use xlink:href="#DejaVuSans-37" transform="translate(126.21875 0)"/>
       <use xlink:href="#DejaVuSans-42" transform="translate(187.296875 0)"/>
       <use xlink:href="#DejaVuSans-36" transform="translate(237.296875 0)"/>
       <use xlink:href="#DejaVuSans-4c" transform="translate(300.78125 0)"/>
       <use xlink:href="#DejaVuSans-4a" transform="translate(328.5625 0)"/>
       <use xlink:href="#DejaVuSans-51" transform="translate(392.046875 0)"/>
       <use xlink:href="#DejaVuSans-44" transform="translate(455.421875 0)"/>
       <use xlink:href="#DejaVuSans-4f" transform="translate(516.703125 0)"/>
       <use xlink:href="#DejaVuSans-4c" transform="translate(544.484375 0)"/>
       <use xlink:href="#DejaVuSans-51" transform="translate(572.265625 0)"/>
       <use xlink:href="#DejaVuSans-4a" transform="translate(635.640625 0)"/>
      </g>
     </g>
    </g>
    <g id="ytick_17">
     <g id="line2d_29">
      <g>
       <use xlink:href="#m8ad4a7c47d" x="543.950259" y="177.512851" style="stroke: #000000; stroke-width: 0.8"/>
      </g>
     </g>
     <g id="text_40">
      <!-- AKT_Survival -->
      <g transform="translate(472.901821 181.31207) scale(0.1 -0.1)">
       <use xlink:href="#DejaVuSans-24"/>
       <use xlink:href="#DejaVuSans-2e" transform="translate(68.40625 0)"/>
       <use xlink:href="#DejaVuSans-37" transform="translate(126.21875 0)"/>
       <use xlink:href="#DejaVuSans-42" transform="translate(187.296875 0)"/>
       <use xlink:href="#DejaVuSans-36" transform="translate(237.296875 0)"/>
       <use xlink:href="#DejaVuSans-58" transform="translate(300.78125 0)"/>
       <use xlink:href="#DejaVuSans-55" transform="translate(364.15625 0)"/>
       <use xlink:href="#DejaVuSans-59" transform="translate(405.265625 0)"/>
       <use xlink:href="#DejaVuSans-4c" transform="translate(464.453125 0)"/>
       <use xlink:href="#DejaVuSans-59" transform="translate(492.234375 0)"/>
       <use xlink:href="#DejaVuSans-44" transform="translate(551.421875 0)"/>
       <use xlink:href="#DejaVuSans-4f" transform="translate(612.703125 0)"/>
      </g>
     </g>
    </g>
    <g id="ytick_18">
     <g id="line2d_30">
      <g>
       <use xlink:href="#m8ad4a7c47d" x="543.950259" y="163.805351" style="stroke: #000000; stroke-width: 0.8"/>
      </g>
     </g>
     <g id="text_41">
      <!-- Apoptosis_Regulatory -->
      <g transform="translate(428.744009 167.604569) scale(0.1 -0.1)">
       <use xlink:href="#DejaVuSans-24"/>
       <use xlink:href="#DejaVuSans-53" transform="translate(68.40625 0)"/>
       <use xlink:href="#DejaVuSans-52" transform="translate(131.890625 0)"/>
       <use xlink:href="#DejaVuSans-53" transform="translate(193.078125 0)"/>
       <use xlink:href="#DejaVuSans-57" transform="translate(256.5625 0)"/>
       <use xlink:href="#DejaVuSans-52" transform="translate(295.765625 0)"/>
       <use xlink:href="#DejaVuSans-56" transform="translate(356.953125 0)"/>
       <use xlink:href="#DejaVuSans-4c" transform="translate(409.046875 0)"/>
       <use xlink:href="#DejaVuSans-56" transform="translate(436.828125 0)"/>
       <use xlink:href="#DejaVuSans-42" transform="translate(488.921875 0)"/>
       <use xlink:href="#DejaVuSans-35" transform="translate(538.921875 0)"/>
       <use xlink:href="#DejaVuSans-48" transform="translate(603.921875 0)"/>
       <use xlink:href="#DejaVuSans-4a" transform="translate(665.453125 0)"/>
       <use xlink:href="#DejaVuSans-58" transform="translate(728.9375 0)"/>
       <use xlink:href="#DejaVuSans-4f" transform="translate(792.3125 0)"/>
       <use xlink:href="#DejaVuSans-44" transform="translate(820.09375 0)"/>
       <use xlink:href="#DejaVuSans-57" transform="translate(881.375 0)"/>
       <use xlink:href="#DejaVuSans-52" transform="translate(920.578125 0)"/>
       <use xlink:href="#DejaVuSans-55" transform="translate(981.765625 0)"/>
       <use xlink:href="#DejaVuSans-5c" transform="translate(1022.875 0)"/>
      </g>
     </g>
    </g>
    <g id="ytick_19">
     <g id="line2d_31">
      <g>
       <use xlink:href="#m8ad4a7c47d" x="543.950259" y="150.09785" style="stroke: #000000; stroke-width: 0.8"/>
      </g>
     </g>
     <g id="text_42">
      <!-- CDK_CellCycle -->
      <g transform="translate(464.686196 153.897069) scale(0.1 -0.1)">
       <use xlink:href="#DejaVuSans-26"/>
       <use xlink:href="#DejaVuSans-27" transform="translate(69.828125 0)"/>
       <use xlink:href="#DejaVuSans-2e" transform="translate(146.828125 0)"/>
       <use xlink:href="#DejaVuSans-42" transform="translate(212.40625 0)"/>
       <use xlink:href="#DejaVuSans-26" transform="translate(262.40625 0)"/>
       <use xlink:href="#DejaVuSans-48" transform="translate(332.234375 0)"/>
       <use xlink:href="#DejaVuSans-4f" transform="translate(393.765625 0)"/>
       <use xlink:href="#DejaVuSans-4f" transform="translate(421.546875 0)"/>
       <use xlink:href="#DejaVuSans-26" transform="translate(449.328125 0)"/>
       <use xlink:href="#DejaVuSans-5c" transform="translate(519.15625 0)"/>
       <use xlink:href="#DejaVuSans-46" transform="translate(578.34375 0)"/>
       <use xlink:href="#DejaVuSans-4f" transform="translate(633.328125 0)"/>
       <use xlink:href="#DejaVuSans-48" transform="translate(661.109375 0)"/>
      </g>
     </g>
    </g>
    <g id="ytick_20">
     <g id="line2d_32">
      <g>
       <use xlink:href="#m8ad4a7c47d" x="543.950259" y="136.39035" style="stroke: #000000; stroke-width: 0.8"/>
      </g>
     </g>
     <g id="text_43">
      <!-- CellCycle -->
      <g transform="translate(490.926821 140.189568) scale(0.1 -0.1)">
       <use xlink:href="#DejaVuSans-26"/>
       <use xlink:href="#DejaVuSans-48" transform="translate(69.828125 0)"/>
       <use xlink:href="#DejaVuSans-4f" transform="translate(131.359375 0)"/>
       <use xlink:href="#DejaVuSans-4f" transform="translate(159.140625 0)"/>
       <use xlink:href="#DejaVuSans-26" transform="translate(186.921875 0)"/>
       <use xlink:href="#DejaVuSans-5c" transform="translate(256.75 0)"/>
       <use xlink:href="#DejaVuSans-46" transform="translate(315.9375 0)"/>
       <use xlink:href="#DejaVuSans-4f" transform="translate(370.921875 0)"/>
       <use xlink:href="#DejaVuSans-48" transform="translate(398.703125 0)"/>
      </g>
     </g>
    </g>
    <g id="ytick_21">
     <g id="line2d_33">
      <g>
       <use xlink:href="#m8ad4a7c47d" x="543.950259" y="122.682849" style="stroke: #000000; stroke-width: 0.8"/>
      </g>
     </g>
     <g id="text_44">
      <!-- JAK_STAT -->
      <g transform="translate(491.925259 126.481677) scale(0.1 -0.1)">
       <defs>
        <path id="DejaVuSans-2d" d="M 628 4666 
L 1259 4666 
L 1259 325 
Q 1259 -519 939 -900 
Q 619 -1281 -91 -1281 
L -331 -1281 
L -331 -750 
L -134 -750 
Q 284 -750 456 -515 
Q 628 -281 628 325 
L 628 4666 
z
" transform="scale(0.015625)"/>
       </defs>
       <use xlink:href="#DejaVuSans-2d"/>
       <use xlink:href="#DejaVuSans-24" transform="translate(27.75 0)"/>
       <use xlink:href="#DejaVuSans-2e" transform="translate(96.15625 0)"/>
       <use xlink:href="#DejaVuSans-42" transform="translate(161.734375 0)"/>
       <use xlink:href="#DejaVuSans-36" transform="translate(211.734375 0)"/>
       <use xlink:href="#DejaVuSans-37" transform="translate(275.21875 0)"/>
       <use xlink:href="#DejaVuSans-24" transform="translate(328.53125 0)"/>
       <use xlink:href="#DejaVuSans-37" transform="translate(389.171875 0)"/>
      </g>
     </g>
    </g>
    <g id="ytick_22">
     <g id="line2d_34">
      <g>
       <use xlink:href="#m8ad4a7c47d" x="543.950259" y="108.975349" style="stroke: #000000; stroke-width: 0.8"/>
      </g>
     </g>
     <g id="text_45">
      <!-- MAPK -->
      <g transform="translate(508.894009 112.774177) scale(0.1 -0.1)">
       <use xlink:href="#DejaVuSans-30"/>
       <use xlink:href="#DejaVuSans-24" transform="translate(86.28125 0)"/>
       <use xlink:href="#DejaVuSans-33" transform="translate(154.6875 0)"/>
       <use xlink:href="#DejaVuSans-2e" transform="translate(214.984375 0)"/>
      </g>
     </g>
    </g>
    <g id="ytick_23">
     <g id="line2d_35">
      <g>
       <use xlink:href="#m8ad4a7c47d" x="543.950259" y="95.267848" style="stroke: #000000; stroke-width: 0.8"/>
      </g>
     </g>
     <g id="text_46">
      <!-- NFkB -->
      <g transform="translate(511.065884 99.067067) scale(0.1 -0.1)">
       <defs>
        <path id="DejaVuSans-31" d="M 628 4666 
L 1478 4666 
L 3547 763 
L 3547 4666 
L 4159 4666 
L 4159 0 
L 3309 0 
L 1241 3903 
L 1241 0 
L 628 0 
L 628 4666 
z
" transform="scale(0.015625)"/>
       </defs>
       <use xlink:href="#DejaVuSans-31"/>
       <use xlink:href="#DejaVuSans-29" transform="translate(74.8125 0)"/>
       <use xlink:href="#DejaVuSans-4e" transform="translate(132.328125 0)"/>
       <use xlink:href="#DejaVuSans-25" transform="translate(190.234375 0)"/>
      </g>
     </g>
    </g>
    <g id="ytick_24">
     <g id="line2d_36">
      <g>
       <use xlink:href="#m8ad4a7c47d" x="543.950259" y="81.560348" style="stroke: #000000; stroke-width: 0.8"/>
      </g>
     </g>
     <g id="text_47">
      <!-- mTOR -->
      <g transform="translate(506.281509 85.359176) scale(0.1 -0.1)">
       <defs>
        <path id="DejaVuSans-32" d="M 2522 4238 
Q 1834 4238 1429 3725 
Q 1025 3213 1025 2328 
Q 1025 1447 1429 934 
Q 1834 422 2522 422 
Q 3209 422 3611 934 
Q 4013 1447 4013 2328 
Q 4013 3213 3611 3725 
Q 3209 4238 2522 4238 
z
M 2522 4750 
Q 3503 4750 4090 4092 
Q 4678 3434 4678 2328 
Q 4678 1225 4090 567 
Q 3503 -91 2522 -91 
Q 1538 -91 948 565 
Q 359 1222 359 2328 
Q 359 3434 948 4092 
Q 1538 4750 2522 4750 
z
" transform="scale(0.015625)"/>
       </defs>
       <use xlink:href="#DejaVuSans-50"/>
       <use xlink:href="#DejaVuSans-37" transform="translate(97.40625 0)"/>
       <use xlink:href="#DejaVuSans-32" transform="translate(158.484375 0)"/>
       <use xlink:href="#DejaVuSans-35" transform="translate(237.203125 0)"/>
      </g>
     </g>
    </g>
   </g>
   <g id="patch_34">
    <path d="M 543.950259 317.877656 
L 543.950259 64.563047 
" style="fill: none; stroke: #000000; stroke-width: 0.8; stroke-linejoin: miter; stroke-linecap: square"/>
   </g>
   <g id="patch_35">
    <path d="M 918.744736 317.877656 
L 918.744736 64.563047 
" style="fill: none; stroke: #000000; stroke-width: 0.8; stroke-linejoin: miter; stroke-linecap: square"/>
   </g>
   <g id="patch_36">
    <path d="M 543.950259 317.877656 
L 918.744736 317.877656 
" style="fill: none; stroke: #000000; stroke-width: 0.8; stroke-linejoin: miter; stroke-linecap: square"/>
   </g>
   <g id="patch_37">
    <path d="M 543.950259 64.563047 
L 918.744736 64.563047 
" style="fill: none; stroke: #000000; stroke-width: 0.8; stroke-linejoin: miter; stroke-linecap: square"/>
   </g>
   <g id="text_48">
    <!--  246 -->
    <g transform="translate(652.894417 302.958481) scale(0.08 -0.08)">
     <use xlink:href="#DejaVuSans-3"/>
     <use xlink:href="#DejaVuSans-15" transform="translate(31.78125 0)"/>
     <use xlink:href="#DejaVuSans-17" transform="translate(95.40625 0)"/>
     <use xlink:href="#DejaVuSans-19" transform="translate(159.03125 0)"/>
    </g>
   </g>
   <g id="text_49">
    <!--  384 -->
    <g transform="translate(714.009433 289.25098) scale(0.08 -0.08)">
     <use xlink:href="#DejaVuSans-3"/>
     <use xlink:href="#DejaVuSans-16" transform="translate(31.78125 0)"/>
     <use xlink:href="#DejaVuSans-1b" transform="translate(95.40625 0)"/>
     <use xlink:href="#DejaVuSans-17" transform="translate(159.03125 0)"/>
    </g>
   </g>
   <g id="text_50">
    <!--  467 -->
    <g transform="translate(750.767015 275.54348) scale(0.08 -0.08)">
     <use xlink:href="#DejaVuSans-3"/>
     <use xlink:href="#DejaVuSans-17" transform="translate(31.78125 0)"/>
     <use xlink:href="#DejaVuSans-19" transform="translate(95.40625 0)"/>
     <use xlink:href="#DejaVuSans-1a" transform="translate(159.03125 0)"/>
    </g>
   </g>
   <g id="text_51">
    <!--  497 -->
    <g transform="translate(764.052888 261.835979) scale(0.08 -0.08)">
     <use xlink:href="#DejaVuSans-3"/>
     <use xlink:href="#DejaVuSans-17" transform="translate(31.78125 0)"/>
     <use xlink:href="#DejaVuSans-1c" transform="translate(95.40625 0)"/>
     <use xlink:href="#DejaVuSans-1a" transform="translate(159.03125 0)"/>
    </g>
   </g>
   <g id="text_52">
    <!--  745 -->
    <g transform="translate(873.882772 248.128479) scale(0.08 -0.08)">
     <use xlink:href="#DejaVuSans-3"/>
     <use xlink:href="#DejaVuSans-1a" transform="translate(31.78125 0)"/>
     <use xlink:href="#DejaVuSans-17" transform="translate(95.40625 0)"/>
     <use xlink:href="#DejaVuSans-18" transform="translate(159.03125 0)"/>
    </g>
   </g>
   <g id="text_53">
    <!--  764 -->
    <g transform="translate(882.297158 234.420978) scale(0.08 -0.08)">
     <use xlink:href="#DejaVuSans-3"/>
     <use xlink:href="#DejaVuSans-1a" transform="translate(31.78125 0)"/>
     <use xlink:href="#DejaVuSans-19" transform="translate(95.40625 0)"/>
     <use xlink:href="#DejaVuSans-17" transform="translate(159.03125 0)"/>
    </g>
   </g>
   <g id="text_54">
    <!--  794 -->
    <g transform="translate(895.583031 220.713478) scale(0.08 -0.08)">
     <use xlink:href="#DejaVuSans-3"/>
     <use xlink:href="#DejaVuSans-1a" transform="translate(31.78125 0)"/>
     <use xlink:href="#DejaVuSans-1c" transform="translate(95.40625 0)"/>
     <use xlink:href="#DejaVuSans-17" transform="translate(159.03125 0)"/>
    </g>
   </g>
   <g id="text_55">
    <!--  794 -->
    <g transform="translate(895.583031 207.005977) scale(0.08 -0.08)">
     <use xlink:href="#DejaVuSans-3"/>
     <use xlink:href="#DejaVuSans-1a" transform="translate(31.78125 0)"/>
     <use xlink:href="#DejaVuSans-1c" transform="translate(95.40625 0)"/>
     <use xlink:href="#DejaVuSans-17" transform="translate(159.03125 0)"/>
    </g>
   </g>
   <g id="text_56">
    <!--  806 -->
    <g transform="translate(900.89738 193.298477) scale(0.08 -0.08)">
     <use xlink:href="#DejaVuSans-3"/>
     <use xlink:href="#DejaVuSans-1b" transform="translate(31.78125 0)"/>
     <use xlink:href="#DejaVuSans-13" transform="translate(95.40625 0)"/>
     <use xlink:href="#DejaVuSans-19" transform="translate(159.03125 0)"/>
    </g>
   </g>
   <g id="text_57">
    <!--  806 -->
    <g transform="translate(900.89738 179.590976) scale(0.08 -0.08)">
     <use xlink:href="#DejaVuSans-3"/>
     <use xlink:href="#DejaVuSans-1b" transform="translate(31.78125 0)"/>
     <use xlink:href="#DejaVuSans-13" transform="translate(95.40625 0)"/>
     <use xlink:href="#DejaVuSans-19" transform="translate(159.03125 0)"/>
    </g>
   </g>
   <g id="text_58">
    <!--  806 -->
    <g transform="translate(900.89738 165.883476) scale(0.08 -0.08)">
     <use xlink:href="#DejaVuSans-3"/>
     <use xlink:href="#DejaVuSans-1b" transform="translate(31.78125 0)"/>
     <use xlink:href="#DejaVuSans-13" transform="translate(95.40625 0)"/>
     <use xlink:href="#DejaVuSans-19" transform="translate(159.03125 0)"/>
    </g>
   </g>
   <g id="text_59">
    <!--  806 -->
    <g transform="translate(900.89738 152.175975) scale(0.08 -0.08)">
     <use xlink:href="#DejaVuSans-3"/>
     <use xlink:href="#DejaVuSans-1b" transform="translate(31.78125 0)"/>
     <use xlink:href="#DejaVuSans-13" transform="translate(95.40625 0)"/>
     <use xlink:href="#DejaVuSans-19" transform="translate(159.03125 0)"/>
    </g>
   </g>
   <g id="text_60">
    <!--  806 -->
    <g transform="translate(900.89738 138.468475) scale(0.08 -0.08)">
     <use xlink:href="#DejaVuSans-3"/>
     <use xlink:href="#DejaVuSans-1b" transform="translate(31.78125 0)"/>
     <use xlink:href="#DejaVuSans-13" transform="translate(95.40625 0)"/>
     <use xlink:href="#DejaVuSans-19" transform="translate(159.03125 0)"/>
    </g>
   </g>
   <g id="text_61">
    <!--  806 -->
    <g transform="translate(900.89738 124.760974) scale(0.08 -0.08)">
     <use xlink:href="#DejaVuSans-3"/>
     <use xlink:href="#DejaVuSans-1b" transform="translate(31.78125 0)"/>
     <use xlink:href="#DejaVuSans-13" transform="translate(95.40625 0)"/>
     <use xlink:href="#DejaVuSans-19" transform="translate(159.03125 0)"/>
    </g>
   </g>
   <g id="text_62">
    <!--  806 -->
    <g transform="translate(900.89738 111.053474) scale(0.08 -0.08)">
     <use xlink:href="#DejaVuSans-3"/>
     <use xlink:href="#DejaVuSans-1b" transform="translate(31.78125 0)"/>
     <use xlink:href="#DejaVuSans-13" transform="translate(95.40625 0)"/>
     <use xlink:href="#DejaVuSans-19" transform="translate(159.03125 0)"/>
    </g>
   </g>
   <g id="text_63">
    <!--  806 -->
    <g transform="translate(900.89738 97.345973) scale(0.08 -0.08)">
     <use xlink:href="#DejaVuSans-3"/>
     <use xlink:href="#DejaVuSans-1b" transform="translate(31.78125 0)"/>
     <use xlink:href="#DejaVuSans-13" transform="translate(95.40625 0)"/>
     <use xlink:href="#DejaVuSans-19" transform="translate(159.03125 0)"/>
    </g>
   </g>
   <g id="text_64">
    <!--  806 -->
    <g transform="translate(900.89738 83.638473) scale(0.08 -0.08)">
     <use xlink:href="#DejaVuSans-3"/>
     <use xlink:href="#DejaVuSans-1b" transform="translate(31.78125 0)"/>
     <use xlink:href="#DejaVuSans-13" transform="translate(95.40625 0)"/>
     <use xlink:href="#DejaVuSans-19" transform="translate(159.03125 0)"/>
    </g>
   </g>
   <g id="text_65">
    <!-- CDE pathway burden  (switch arm: fixed 9-node BBCN-S) -->
    <g transform="translate(560.31656 58.563047) scale(0.12 -0.12)">
     <defs>
      <path id="DejaVuSans-45" d="M 3116 1747 
Q 3116 2381 2855 2742 
Q 2594 3103 2138 3103 
Q 1681 3103 1420 2742 
Q 1159 2381 1159 1747 
Q 1159 1113 1420 752 
Q 1681 391 2138 391 
Q 2594 391 2855 752 
Q 3116 1113 3116 1747 
z
M 1159 2969 
Q 1341 3281 1617 3432 
Q 1894 3584 2278 3584 
Q 2916 3584 3314 3078 
Q 3713 2572 3713 1747 
Q 3713 922 3314 415 
Q 2916 -91 2278 -91 
Q 1894 -91 1617 61 
Q 1341 213 1159 525 
L 1159 0 
L 581 0 
L 581 4863 
L 1159 4863 
L 1159 2969 
z
" transform="scale(0.015625)"/>
      <path id="DejaVuSans-13af" d="M 3431 3500 
L 3431 0 
L 2853 0 
L 2853 3053 
L 1275 3053 
L 1275 0 
L 697 0 
L 697 3053 
L 147 3053 
L 147 3500 
L 697 3500 
L 697 3744 
Q 697 4316 967 4589 
Q 1238 4863 1797 4863 
L 2375 4863 
L 2375 4384 
L 1825 4384 
Q 1516 4384 1395 4259 
Q 1275 4134 1275 3809 
L 1275 3500 
L 3431 3500 
z
M 2853 4856 
L 3431 4856 
L 3431 4128 
L 2853 4128 
L 2853 4856 
z
" transform="scale(0.015625)"/>
      <path id="DejaVuSans-10" d="M 313 2009 
L 1997 2009 
L 1997 1497 
L 313 1497 
L 313 2009 
z
" transform="scale(0.015625)"/>
     </defs>
     <use xlink:href="#DejaVuSans-26"/>
     <use xlink:href="#DejaVuSans-27" transform="translate(69.828125 0)"/>
     <use xlink:href="#DejaVuSans-28" transform="translate(146.828125 0)"/>
     <use xlink:href="#DejaVuSans-3" transform="translate(210.015625 0)"/>
     <use xlink:href="#DejaVuSans-53" transform="translate(241.796875 0)"/>
     <use xlink:href="#DejaVuSans-44" transform="translate(305.28125 0)"/>
     <use xlink:href="#DejaVuSans-57" transform="translate(366.5625 0)"/>
     <use xlink:href="#DejaVuSans-4b" transform="translate(405.765625 0)"/>
     <use xlink:href="#DejaVuSans-5a" transform="translate(469.140625 0)"/>
     <use xlink:href="#DejaVuSans-44" transform="translate(550.921875 0)"/>
     <use xlink:href="#DejaVuSans-5c" transform="translate(612.203125 0)"/>
     <use xlink:href="#DejaVuSans-3" transform="translate(671.390625 0)"/>
     <use xlink:href="#DejaVuSans-45" transform="translate(703.171875 0)"/>
     <use xlink:href="#DejaVuSans-58" transform="translate(766.65625 0)"/>
     <use xlink:href="#DejaVuSans-55" transform="translate(830.03125 0)"/>
     <use xlink:href="#DejaVuSans-47" transform="translate(869.390625 0)"/>
     <use xlink:href="#DejaVuSans-48" transform="translate(932.875 0)"/>
     <use xlink:href="#DejaVuSans-51" transform="translate(994.40625 0)"/>
     <use xlink:href="#DejaVuSans-3" transform="translate(1057.78125 0)"/>
     <use xlink:href="#DejaVuSans-3" transform="translate(1089.5625 0)"/>
     <use xlink:href="#DejaVuSans-b" transform="translate(1121.34375 0)"/>
     <use xlink:href="#DejaVuSans-56" transform="translate(1160.359375 0)"/>
     <use xlink:href="#DejaVuSans-5a" transform="translate(1212.453125 0)"/>
     <use xlink:href="#DejaVuSans-4c" transform="translate(1294.234375 0)"/>
     <use xlink:href="#DejaVuSans-57" transform="translate(1322.015625 0)"/>
     <use xlink:href="#DejaVuSans-46" transform="translate(1361.21875 0)"/>
     <use xlink:href="#DejaVuSans-4b" transform="translate(1416.203125 0)"/>
     <use xlink:href="#DejaVuSans-3" transform="translate(1479.578125 0)"/>
     <use xlink:href="#DejaVuSans-44" transform="translate(1511.359375 0)"/>
     <use xlink:href="#DejaVuSans-55" transform="translate(1572.640625 0)"/>
     <use xlink:href="#DejaVuSans-50" transform="translate(1612 0)"/>
     <use xlink:href="#DejaVuSans-1d" transform="translate(1709.40625 0)"/>
     <use xlink:href="#DejaVuSans-3" transform="translate(1743.09375 0)"/>
     <use xlink:href="#DejaVuSans-13af" transform="translate(1774.875 0)"/>
     <use xlink:href="#DejaVuSans-5b" transform="translate(1837.859375 0)"/>
     <use xlink:href="#DejaVuSans-48" transform="translate(1893.96875 0)"/>
     <use xlink:href="#DejaVuSans-47" transform="translate(1955.5 0)"/>
     <use xlink:href="#DejaVuSans-3" transform="translate(2018.984375 0)"/>
     <use xlink:href="#DejaVuSans-1c" transform="translate(2050.765625 0)"/>
     <use xlink:href="#DejaVuSans-10" transform="translate(2114.390625 0)"/>
     <use xlink:href="#DejaVuSans-51" transform="translate(2150.46875 0)"/>
     <use xlink:href="#DejaVuSans-52" transform="translate(2213.84375 0)"/>
     <use xlink:href="#DejaVuSans-47" transform="translate(2275.03125 0)"/>
     <use xlink:href="#DejaVuSans-48" transform="translate(2338.515625 0)"/>
     <use xlink:href="#DejaVuSans-3" transform="translate(2400.046875 0)"/>
     <use xlink:href="#DejaVuSans-25" transform="translate(2431.828125 0)"/>
     <use xlink:href="#DejaVuSans-25" transform="translate(2500.4375 0)"/>
     <use xlink:href="#DejaVuSans-26" transform="translate(2567.296875 0)"/>
     <use xlink:href="#DejaVuSans-31" transform="translate(2637.125 0)"/>
     <use xlink:href="#DejaVuSans-10" transform="translate(2711.9375 0)"/>
     <use xlink:href="#DejaVuSans-36" transform="translate(2748.015625 0)"/>
     <use xlink:href="#DejaVuSans-c" transform="translate(2811.5 0)"/>
    </g>
   </g>
  </g>
  <g id="text_66">
   <!-- Kernel composition: CDE (Setup A) vs switch (Setup B) -->
   <g transform="translate(286.553906 17.077969) scale(0.13 -0.13)">
    <use xlink:href="#DejaVuSans-2e"/>
    <use xlink:href="#DejaVuSans-48" transform="translate(60.59375 0)"/>
    <use xlink:href="#DejaVuSans-55" transform="translate(122.125 0)"/>
    <use xlink:href="#DejaVuSans-51" transform="translate(161.484375 0)"/>
    <use xlink:href="#DejaVuSans-48" transform="translate(224.859375 0)"/>
    <use xlink:href="#DejaVuSans-4f" transform="translate(286.390625 0)"/>
    <use xlink:href="#DejaVuSans-3" transform="translate(314.171875 0)"/>
    <use xlink:href="#DejaVuSans-46" transform="translate(345.953125 0)"/>
    <use xlink:href="#DejaVuSans-52" transform="translate(400.9375 0)"/>
    <use xlink:href="#DejaVuSans-50" transform="translate(462.125 0)"/>
    <use xlink:href="#DejaVuSans-53" transform="translate(559.53125 0)"/>
    <use xlink:href="#DejaVuSans-52" transform="translate(623.015625 0)"/>
    <use xlink:href="#DejaVuSans-56" transform="translate(684.203125 0)"/>
    <use xlink:href="#DejaVuSans-4c" transform="translate(736.296875 0)"/>
    <use xlink:href="#DejaVuSans-57" transform="translate(764.078125 0)"/>
    <use xlink:href="#DejaVuSans-4c" transform="translate(803.28125 0)"/>
    <use xlink:href="#DejaVuSans-52" transform="translate(831.0625 0)"/>
    <use xlink:href="#DejaVuSans-51" transform="translate(892.25 0)"/>
    <use xlink:href="#DejaVuSans-1d" transform="translate(955.625 0)"/>
    <use xlink:href="#DejaVuSans-3" transform="translate(989.3125 0)"/>
    <use xlink:href="#DejaVuSans-26" transform="translate(1021.09375 0)"/>
    <use xlink:href="#DejaVuSans-27" transform="translate(1090.921875 0)"/>
    <use xlink:href="#DejaVuSans-28" transform="translate(1167.921875 0)"/>
    <use xlink:href="#DejaVuSans-3" transform="translate(1231.109375 0)"/>
    <use xlink:href="#DejaVuSans-b" transform="translate(1262.890625 0)"/>
    <use xlink:href="#DejaVuSans-36" transform="translate(1301.90625 0)"/>
    <use xlink:href="#DejaVuSans-48" transform="translate(1365.390625 0)"/>
    <use xlink:href="#DejaVuSans-57" transform="translate(1426.921875 0)"/>
    <use xlink:href="#DejaVuSans-58" transform="translate(1466.125 0)"/>
    <use xlink:href="#DejaVuSans-53" transform="translate(1529.5 0)"/>
    <use xlink:href="#DejaVuSans-3" transform="translate(1592.984375 0)"/>
    <use xlink:href="#DejaVuSans-24" transform="translate(1624.765625 0)"/>
    <use xlink:href="#DejaVuSans-c" transform="translate(1693.171875 0)"/>
    <use xlink:href="#DejaVuSans-3" transform="translate(1732.1875 0)"/>
    <use xlink:href="#DejaVuSans-59" transform="translate(1763.96875 0)"/>
    <use xlink:href="#DejaVuSans-56" transform="translate(1823.15625 0)"/>
    <use xlink:href="#DejaVuSans-3" transform="translate(1875.25 0)"/>
    <use xlink:href="#DejaVuSans-56" transform="translate(1907.03125 0)"/>
    <use xlink:href="#DejaVuSans-5a" transform="translate(1959.125 0)"/>
    <use xlink:href="#DejaVuSans-4c" transform="translate(2040.90625 0)"/>
    <use xlink:href="#DejaVuSans-57" transform="translate(2068.6875 0)"/>
    <use xlink:href="#DejaVuSans-46" transform="translate(2107.890625 0)"/>
    <use xlink:href="#DejaVuSans-4b" transform="translate(2162.875 0)"/>
    <use xlink:href="#DejaVuSans-3" transform="translate(2226.25 0)"/>
    <use xlink:href="#DejaVuSans-b" transform="translate(2258.03125 0)"/>
    <use xlink:href="#DejaVuSans-36" transform="translate(2297.046875 0)"/>
    <use xlink:href="#DejaVuSans-48" transform="translate(2360.53125 0)"/>
    <use xlink:href="#DejaVuSans-57" transform="translate(2422.0625 0)"/>
    <use xlink:href="#DejaVuSans-58" transform="translate(2461.265625 0)"/>
    <use xlink:href="#DejaVuSans-53" transform="translate(2524.640625 0)"/>
    <use xlink:href="#DejaVuSans-3" transform="translate(2588.125 0)"/>
    <use xlink:href="#DejaVuSans-25" transform="translate(2619.90625 0)"/>
    <use xlink:href="#DejaVuSans-c" transform="translate(2688.515625 0)"/>
   </g>
  </g>
 </g>
 <defs>
  <clipPath id="pbcd0bd0ec4">
   <rect x="40.925781" y="64.563047" width="374.794477" height="253.314609"/>
  </clipPath>
  <clipPath id="p158b694e7a">
   <rect x="543.950259" y="64.563047" width="374.794477" height="253.314609"/>
  </clipPath>
 </defs>
</svg>
